<svg width="68" height="68" viewBox="0 0 68 68" fill="none" xmlns="http://www.w3.org/2000/svg">
<g filter="url(#filter0_d_63_403)">
<rect x="3.99878" y="2" width="60" height="60" rx="30" fill="#FFF7F5" shape-rendering="crispEdges"/>
<mask id="mask0_63_403" style="mask-type:luminance" maskUnits="userSpaceOnUse" x="3" y="2" width="61" height="60">
<path d="M33.9988 62C50.5673 62 63.9988 48.5685 63.9988 32C63.9988 15.4315 50.5673 2 33.9988 2C17.4302 2 3.99878 15.4315 3.99878 32C3.99878 48.5685 17.4302 62 33.9988 62Z" fill="white"/>
</mask>
<g mask="url(#mask0_63_403)">
<path d="M3.99878 2H63.9988V18.957L61.1863 32L63.9988 45.043V62H3.99878V45.043L7.04565 32L3.99878 18.957V2Z" fill="#338AF3"/>
<path d="M3.99878 18.957H63.9988V45.043H3.99878V18.957Z" fill="#EEEEEE"/>
<path d="M42.9521 32L39.2959 33.7227L41.2529 37.2734L37.2686 36.5117L36.7764 40.5312L33.999 37.5781L31.2334 40.5312L30.7295 36.5117L26.7451 37.2734L28.6904 33.7227L25.0342 32L28.7021 30.2773L26.7334 26.7266L30.7178 27.4883L31.2217 23.4688L33.9873 26.4219L36.7529 23.4688L37.2686 27.4883L41.2529 26.7266L39.2959 30.2773L42.9521 32Z" fill="#FFDA44"/>
</g>
</g>
<defs>
<filter id="filter0_d_63_403" x="-0.0012207" y="0" width="68" height="68" filterUnits="userSpaceOnUse" color-interpolation-filters="sRGB">
<feFlood flood-opacity="0" result="BackgroundImageFix"/>
<feColorMatrix in="SourceAlpha" type="matrix" values="0 0 0 0 0 0 0 0 0 0 0 0 0 0 0 0 0 0 127 0" result="hardAlpha"/>
<feOffset dy="2"/>
<feGaussianBlur stdDeviation="2"/>
<feComposite in2="hardAlpha" operator="out"/>
<feColorMatrix type="matrix" values="0 0 0 0 0 0 0 0 0 0 0 0 0 0 0 0 0 0 0.6 0"/>
<feBlend mode="normal" in2="BackgroundImageFix" result="effect1_dropShadow_63_403"/>
<feBlend mode="normal" in="SourceGraphic" in2="effect1_dropShadow_63_403" result="shape"/>
</filter>
</defs>
</svg>
