<svg width="34" height="34" viewBox="0 0 34 34" fill="none" xmlns="http://www.w3.org/2000/svg">
<path d="M17 19.8335C17.5581 19.8335 18.1108 19.7236 18.6264 19.51C19.142 19.2964 19.6106 18.9834 20.0052 18.5887C20.3999 18.1941 20.7129 17.7255 20.9265 17.2099C21.1401 16.6943 21.25 16.1416 21.25 15.5835M17 19.8335C15.8728 19.8335 14.7918 19.3857 13.9948 18.5887C13.1978 17.7917 12.75 16.7107 12.75 15.5835M17 19.8335V24.0835M21.25 15.5835C21.25 15.0254 21.1401 14.4727 20.9265 13.9571C20.7129 13.4415 20.3999 12.9729 20.0052 12.5783C19.6106 12.1836 19.142 11.8706 18.6264 11.657C18.1108 11.4434 17.5581 11.3335 17 11.3335M21.25 15.5835H25.5M17 11.3335C15.8728 11.3335 14.7918 11.7813 13.9948 12.5783C13.1978 13.3753 12.75 14.4563 12.75 15.5835M17 11.3335V7.0835M12.75 15.5835H8.5M11.3333 9.91683L14.1667 12.7502M19.8333 18.4168L22.6667 21.2502M22.6667 9.91683L19.8333 12.7502M14.1667 18.4168L11.3333 21.2502M17 31.1668C17 31.1668 4.25 25.5002 4.25 15.5835V7.0835L17 2.8335L29.75 7.0835V15.5835C29.75 25.5002 17 31.1668 17 31.1668Z" stroke="black" stroke-width="2"/>
</svg>
