<svg width="34" height="34" viewBox="0 0 34 34" fill="none" xmlns="http://www.w3.org/2000/svg">
<path d="M30.166 25.4995C30.166 26.5056 29.3391 27.3335 28.333 27.3335H5.66602C4.66011 27.3333 3.83301 26.5055 3.83301 25.4995V8.53271L5.13672 9.34814L16.4697 16.4312L17 16.7622L17.5293 16.4312L28.8633 9.34814L30.166 8.53271V25.4995ZM27.8027 10.4849L16.999 17.2368L6.19629 10.4849L4.66602 9.52881V26.4995H29.333V9.52881L27.8027 10.4849ZM5.66602 6.6665H28.333C28.9708 6.6665 29.5354 6.99982 29.8643 7.49951H4.13477C4.46357 6.99982 5.02833 6.66662 5.66602 6.6665Z" stroke="black" stroke-width="2"/>
</svg>
