<svg width="34" height="34" viewBox="0 0 34 34" fill="none" xmlns="http://www.w3.org/2000/svg">
<path d="M24.0834 19.8334V2.83337M12.7501 25.67L14.1667 19.8334H5.90755C5.46769 19.8334 5.03387 19.731 4.64045 19.5343C4.24702 19.3375 3.9048 19.0519 3.64089 18.7C3.37697 18.3482 3.19861 17.9396 3.11992 17.5069C3.04124 17.0741 3.06439 16.629 3.18755 16.2067L6.48839 4.87337C6.66004 4.28485 7.01795 3.76787 7.50839 3.40004C7.99883 3.03221 8.59534 2.83337 9.20839 2.83337H28.3334C29.0848 2.83337 29.8055 3.13188 30.3369 3.66324C30.8682 4.19459 31.1667 4.91526 31.1667 5.66671V17C31.1667 17.7515 30.8682 18.4722 30.3369 19.0035C29.8055 19.5349 29.0848 19.8334 28.3334 19.8334H24.4234C23.8963 19.8337 23.3797 19.981 22.9317 20.2588C22.4837 20.5366 22.1221 20.9338 21.8876 21.4059L17.0001 31.1667C16.332 31.1584 15.6744 30.9993 15.0765 30.7012C14.4786 30.4031 13.9557 29.9737 13.5471 29.4452C13.1384 28.9166 12.8544 28.3025 12.7164 27.6488C12.5784 26.9951 12.5899 26.3187 12.7501 25.67Z" stroke="#1B202B" stroke-width="2" stroke-linecap="round" stroke-linejoin="round"/>
</svg>
