<svg width="34" height="34" viewBox="0 0 34 34" fill="none" xmlns="http://www.w3.org/2000/svg">
<path d="M16.3259 3.25126C16.388 3.12583 16.4839 3.02025 16.6028 2.94643C16.7217 2.87261 16.8589 2.8335 16.9988 2.8335C17.1388 2.8335 17.2759 2.87261 17.3948 2.94643C17.5137 3.02025 17.6096 3.12583 17.6717 3.25126L20.9442 9.87985C21.1598 10.3161 21.478 10.6936 21.8716 10.9798C22.2652 11.2661 22.7223 11.4525 23.2038 11.5232L30.5223 12.5942C30.661 12.6143 30.7913 12.6728 30.8984 12.763C31.0056 12.8533 31.0853 12.9718 31.1287 13.105C31.172 13.2383 31.1772 13.381 31.1436 13.517C31.1101 13.6531 31.0391 13.777 30.9388 13.8748L25.6461 19.0287C25.2971 19.3688 25.0359 19.7887 24.8852 20.2522C24.7344 20.7156 24.6985 21.2088 24.7806 21.6892L26.0301 28.9708C26.0545 29.1095 26.0396 29.2521 25.9868 29.3826C25.9341 29.5132 25.8458 29.6262 25.7319 29.7089C25.618 29.7916 25.4832 29.8407 25.3428 29.8504C25.2024 29.8602 25.062 29.8303 24.9378 29.7642L18.3956 26.3245C17.9646 26.0982 17.485 25.9799 16.9981 25.9799C16.5112 25.9799 16.0316 26.0982 15.6006 26.3245L9.05981 29.7642C8.93561 29.8299 8.79545 29.8595 8.65528 29.8495C8.5151 29.8396 8.38054 29.7905 8.26689 29.7078C8.15324 29.6252 8.06507 29.5123 8.0124 29.382C7.95974 29.2517 7.94469 29.1093 7.96897 28.9708L9.21706 21.6906C9.2995 21.21 9.26378 20.7165 9.11298 20.2527C8.96219 19.789 8.70083 19.3689 8.35147 19.0287L3.05881 13.8763C2.95765 13.7786 2.88596 13.6544 2.85192 13.518C2.81788 13.3815 2.82284 13.2382 2.86625 13.1044C2.90966 12.9707 2.98977 12.8518 3.09745 12.7613C3.20513 12.6709 3.33605 12.6125 3.47531 12.5928L10.7924 11.5232C11.2744 11.4531 11.7322 11.2668 12.1263 10.9806C12.5204 10.6943 12.8391 10.3166 13.0548 9.87985L16.3259 3.25126Z" stroke="black" stroke-width="2" stroke-linecap="round" stroke-linejoin="round"/>
</svg>
