<svg width="40" height="39" viewBox="0 0 40 39" fill="none" xmlns="http://www.w3.org/2000/svg">
<g clip-path="url(#clip0_316_5886)" filter="url(#filter0_d_316_5886)">
<g filter="url(#filter1_d_316_5886)">
<path d="M19.3259 3.25126C19.388 3.12583 19.4839 3.02025 19.6028 2.94643C19.7217 2.87261 19.8589 2.8335 19.9988 2.8335C20.1388 2.8335 20.2759 2.87261 20.3948 2.94643C20.5137 3.02025 20.6096 3.12583 20.6717 3.25126L23.9442 9.87985C24.1598 10.3161 24.478 10.6936 24.8716 10.9798C25.2652 11.2661 25.7223 11.4525 26.2038 11.5232L33.5223 12.5942C33.661 12.6143 33.7913 12.6728 33.8984 12.763C34.0056 12.8533 34.0853 12.9718 34.1287 13.105C34.172 13.2383 34.1772 13.381 34.1436 13.517C34.1101 13.6531 34.0391 13.777 33.9388 13.8748L28.6461 19.0287C28.2971 19.3688 28.0359 19.7887 27.8852 20.2522C27.7344 20.7156 27.6985 21.2088 27.7806 21.6892L29.0301 28.9708C29.0545 29.1095 29.0396 29.2521 28.9868 29.3826C28.9341 29.5132 28.8458 29.6262 28.7319 29.7089C28.618 29.7916 28.4832 29.8407 28.3428 29.8504C28.2024 29.8602 28.062 29.8303 27.9378 29.7642L21.3956 26.3245C20.9646 26.0982 20.485 25.9799 19.9981 25.9799C19.5112 25.9799 19.0316 26.0982 18.6006 26.3245L12.0598 29.7642C11.9356 29.8299 11.7955 29.8595 11.6553 29.8495C11.5151 29.8396 11.3805 29.7905 11.2669 29.7078C11.1532 29.6252 11.0651 29.5123 11.0124 29.382C10.9597 29.2517 10.9447 29.1093 10.969 28.9708L12.2171 21.6906C12.2995 21.21 12.2638 20.7165 12.113 20.2527C11.9622 19.789 11.7008 19.3689 11.3515 19.0287L6.05881 13.8763C5.95765 13.7786 5.88596 13.6544 5.85192 13.518C5.81788 13.3815 5.82284 13.2382 5.86625 13.1044C5.90966 12.9707 5.98977 12.8518 6.09745 12.7613C6.20513 12.6709 6.33605 12.6125 6.47531 12.5928L13.7924 11.5232C14.2744 11.4531 14.7322 11.2668 15.1263 10.9806C15.5204 10.6943 15.8391 10.3166 16.0548 9.87985L19.3259 3.25126Z" stroke="black" stroke-width="2" stroke-linecap="round" stroke-linejoin="round" shape-rendering="crispEdges"/>
</g>
</g>
<defs>
<filter id="filter0_d_316_5886" x="-1.00122" y="0" width="42" height="42" filterUnits="userSpaceOnUse" color-interpolation-filters="sRGB">
<feFlood flood-opacity="0" result="BackgroundImageFix"/>
<feColorMatrix in="SourceAlpha" type="matrix" values="0 0 0 0 0 0 0 0 0 0 0 0 0 0 0 0 0 0 127 0" result="hardAlpha"/>
<feOffset dy="4"/>
<feGaussianBlur stdDeviation="2"/>
<feComposite in2="hardAlpha" operator="out"/>
<feColorMatrix type="matrix" values="0 0 0 0 0 0 0 0 0 0 0 0 0 0 0 0 0 0 0.25 0"/>
<feBlend mode="normal" in2="BackgroundImageFix" result="effect1_dropShadow_316_5886"/>
<feBlend mode="normal" in="SourceGraphic" in2="effect1_dropShadow_316_5886" result="shape"/>
</filter>
<filter id="filter1_d_316_5886" x="0.82959" y="1.8335" width="38.3359" height="37.0188" filterUnits="userSpaceOnUse" color-interpolation-filters="sRGB">
<feFlood flood-opacity="0" result="BackgroundImageFix"/>
<feColorMatrix in="SourceAlpha" type="matrix" values="0 0 0 0 0 0 0 0 0 0 0 0 0 0 0 0 0 0 127 0" result="hardAlpha"/>
<feOffset dy="4"/>
<feGaussianBlur stdDeviation="2"/>
<feComposite in2="hardAlpha" operator="out"/>
<feColorMatrix type="matrix" values="0 0 0 0 0 0 0 0 0 0 0 0 0 0 0 0 0 0 0.25 0"/>
<feBlend mode="normal" in2="BackgroundImageFix" result="effect1_dropShadow_316_5886"/>
<feBlend mode="normal" in="SourceGraphic" in2="effect1_dropShadow_316_5886" result="shape"/>
</filter>
<clipPath id="clip0_316_5886">
<rect width="34" height="34" fill="white" transform="translate(2.99878)"/>
</clipPath>
</defs>
</svg>
