<svg width="34" height="34" viewBox="0 0 34 34" fill="none" xmlns="http://www.w3.org/2000/svg">
<path d="M21.2499 12.75L12.7499 21.25M12.7499 12.75L21.2499 21.25M3.66342 23.6952C3.13203 23.164 2.83341 22.4434 2.83325 21.692V12.308C2.83341 11.5567 3.13203 10.8361 3.66342 10.3049L10.3048 3.66354C10.836 3.13215 11.5565 2.83353 12.3079 2.83337H21.6919C22.4433 2.83353 23.1639 3.13215 23.6951 3.66354L30.3364 10.3049C30.8678 10.8361 31.1664 11.5567 31.1666 12.308V21.692C31.1664 22.4434 30.8678 23.164 30.3364 23.6952L23.6951 30.3365C23.1639 30.8679 22.4433 31.1665 21.6919 31.1667H12.3079C11.5565 31.1665 10.836 30.8679 10.3048 30.3365L3.66342 23.6952Z" stroke="#A8A8A8" stroke-width="2" stroke-linecap="round" stroke-linejoin="round"/>
</svg>
