<svg width="34" height="34" viewBox="0 0 34 34" fill="none" xmlns="http://www.w3.org/2000/svg">
<path d="M11.3333 4.25H7.08333C6.33189 4.25 5.61122 4.54851 5.07986 5.07986C4.54851 5.61122 4.25 6.33189 4.25 7.08333V11.3333M29.75 11.3333V7.08333C29.75 6.33189 29.4515 5.61122 28.9201 5.07986C28.3888 4.54851 27.6681 4.25 26.9167 4.25H22.6667M4.25 22.6667V26.9167C4.25 27.6681 4.54851 28.3888 5.07986 28.9201C5.61122 29.4515 6.33189 29.75 7.08333 29.75H11.3333M22.6667 29.75H26.9167C27.6681 29.75 28.3888 29.4515 28.9201 28.9201C29.4515 28.3888 29.75 27.6681 29.75 26.9167V22.6667" stroke="#1B202B" stroke-width="2" stroke-linecap="round" stroke-linejoin="round"/>
</svg>
