<svg width="54" height="54" viewBox="0 0 54 54" fill="none" xmlns="http://www.w3.org/2000/svg">
<g clip-path="url(#clip0_63_767)">
<path d="M53.9988 27C53.9988 12.0884 41.9104 0 26.9988 0C12.0872 0 -0.0012207 12.0884 -0.0012207 27C-0.0012207 40.4764 9.87234 51.6466 22.78 53.672V34.8047H15.9246V27H22.78V21.0516C22.78 14.2847 26.811 10.5469 32.9784 10.5469C35.9324 10.5469 39.0222 11.0742 39.0222 11.0742V17.7188H35.6177C32.2636 17.7188 31.2175 19.8001 31.2175 21.9354V27H38.7058L37.5087 34.8047H31.2175V53.672C44.1252 51.6466 53.9988 40.4766 53.9988 27Z" fill="#1877F2"/>
<path d="M37.5087 34.8047L38.7058 27H31.2175V21.9354C31.2175 19.7999 32.2636 17.7188 35.6177 17.7188H39.0222V11.0742C39.0222 11.0742 35.9324 10.5469 32.9782 10.5469C26.811 10.5469 22.78 14.2847 22.78 21.0516V27H15.9246V34.8047H22.78V53.672C24.1756 53.8907 25.5861 54.0003 26.9988 54C28.4114 54.0003 29.8219 53.8907 31.2175 53.672V34.8047H37.5087Z" fill="white"/>
</g>
<defs>
<clipPath id="clip0_63_767">
<rect width="54" height="54" fill="white" transform="translate(-0.0012207)"/>
</clipPath>
</defs>
</svg>
