<svg width="34" height="34" viewBox="0 0 34 34" fill="none" xmlns="http://www.w3.org/2000/svg">
<path d="M13.8768 18.8335C13.8959 18.757 13.9726 18.6032 14.1311 18.4397C14.2048 18.3637 14.3949 18.2858 14.7399 18.1706C15.189 18.0207 15.607 17.9966 15.852 18.0347C16.0457 18.0648 16.0987 18.3037 16.1468 18.4572C16.2565 18.8078 16.1475 19.2456 15.994 19.5826C15.9033 19.7814 15.7339 19.9103 15.5285 20.097C15.1474 20.4433 14.6863 20.6222 14.4318 20.7183C14.1119 20.8391 13.811 20.815 13.1679 20.7772C12.7234 20.7511 12.4823 20.4791 12.4056 20.3306C12.3007 20.1277 12.2991 19.7974 12.3373 19.4612C12.3659 19.2101 12.5865 18.9888 12.8503 18.7296C12.9846 18.5977 13.1426 18.4895 13.3497 18.3687C13.5568 18.248 13.8139 18.1242 14.1702 17.9937C14.5265 17.8633 14.9741 17.7299 15.2332 17.6612C15.4924 17.5926 15.5495 17.5926 15.6028 17.6164C15.656 17.6402 15.7036 17.6878 15.7377 17.7457C15.9254 18.0646 15.7244 18.6107 15.4846 19.0002C15.1504 19.5428 14.7536 19.6121 14.5078 19.6655C14.2766 19.7158 14.1181 19.5937 13.7724 19.4211C13.6428 19.3564 13.5981 19.2572 13.5692 19.1709C13.5356 19.0706 13.5689 18.9495 13.6024 18.8439C13.6346 18.7424 13.7418 18.6895 13.8138 18.6415C13.8463 18.6198 13.8763 18.6125 13.891 18.6266C13.9301 18.6642 13.8581 18.8133 13.5764 19.1671C13.3592 19.44 12.9233 19.8448 12.4836 20.2416C12.044 20.6384 11.5964 21.0003 11.3515 21.1962C11.1066 21.3922 11.078 21.4112 11.0538 21.3973C10.9886 21.3596 10.9623 21.1437 10.9047 20.6035C10.8625 20.2073 10.8472 19.5585 10.8563 19.0391C10.8653 18.5198 10.913 18.1484 10.9375 17.8618C10.962 17.5752 10.962 17.3848 10.9477 17.2962C10.9335 17.2076 10.9049 17.2266 10.8425 17.2936C10.6789 17.4693 10.5297 17.6878 10.4098 17.9464C10.2362 18.3208 10.2117 18.869 10.226 19.3687C10.2349 19.6808 10.3268 19.8335 10.3463 19.8914C10.3653 19.9478 10.0215 19.6436 9.65628 19.2977C9.20673 18.872 9.02902 18.325 8.97563 18.1128C8.96377 18.0656 8.97072 18.0168 9.00405 18.0351C9.13051 18.1046 9.33464 18.5322 9.63232 19.0702C9.9895 19.7156 10.1534 19.9296 10.1733 20.2368C10.1848 20.414 10.0483 20.5357 9.88528 20.7758C9.71754 21.0228 9.50982 21.3339 9.40405 21.4929C9.38301 21.5246 9.34647 21.5175 9.31747 21.5079C9.19042 21.4662 9.10578 21.3449 9.05268 21.2245C8.99089 21.0845 8.89453 20.9126 8.7739 20.6909C8.66998 20.5 8.5765 20.3059 8.3944 20.0563C8.29425 19.919 8.09657 19.7106 7.78041 19.3319C7.35734 18.8252 7.01838 18.5071 6.93194 18.4013C6.83181 18.2788 6.6533 18.1513 6.451 17.9732C6.31335 17.8521 6.15346 17.5943 5.91262 17.31C5.56431 16.8989 5.51797 16.6702 5.37338 16.3815C5.28448 16.2039 5.16184 15.9776 5.10369 15.8326C5.00337 15.5824 4.8923 15.1499 4.82477 14.9C4.75635 14.6468 4.72837 14.332 4.70442 14.1925C4.68389 14.0729 4.61351 13.8807 4.41655 13.5535C4.24395 13.2669 4.24758 13.1009 4.29014 12.301C4.32697 11.6091 4.58379 11.1863 4.64136 11.0569C4.7992 10.7021 4.92058 10.4071 5.00211 10.2533C5.0644 10.1358 5.15145 10.0605 5.18984 9.99818C5.23255 9.92881 5.53355 9.55375 5.99978 9.0249C6.22907 8.76481 6.46802 8.65651 7.23222 8.37917C7.83763 8.15946 8.91069 7.85421 8.86971 8.2493C8.82873 8.64439 7.6478 9.76817 7.00135 10.3995C6.3549 11.0308 6.27871 11.1355 6.2347 11.2086C6.19069 11.2816 6.18116 11.3197 6.30482 11.2726C6.42849 11.2256 6.68563 11.0922 7.26094 10.6712C7.83625 10.2501 8.72195 9.54538 9.22584 9.13471C9.99238 8.50998 10.048 8.32895 10.0434 8.31899C10.0336 8.29779 9.99119 8.40427 9.63824 8.81004C9.28529 9.2158 8.61863 9.95865 8.04188 10.5556C7.46512 11.1526 6.99846 11.5811 6.73902 11.8257C6.47957 12.0703 6.44147 12.1179 6.42185 12.1044C6.34627 12.0521 6.4308 11.7647 6.49313 11.4383C6.52289 11.2825 6.56499 11.15 6.78461 10.6861C7.00423 10.2221 7.40423 9.43167 7.81028 8.77209C8.21633 8.1125 8.61633 7.60775 8.83667 7.31916C9.05701 7.03056 9.08558 6.97342 9.1003 6.95827C9.11418 6.94398 9.05788 7.10589 8.84749 7.39794C8.70604 7.5943 8.44663 7.8519 8.1286 8.12737C7.81057 8.40283 7.42962 8.67902 7.21909 8.83558C6.97644 9.01603 6.92198 9.0692 6.89298 9.0933C6.87107 9.1115 7.03627 9.01234 7.31851 8.8161C7.51179 8.68171 7.8198 8.49605 8.38632 8.21221C8.95283 7.92838 9.77186 7.55696 10.2128 7.36086C10.6538 7.16476 10.6919 7.15524 11.0306 7.13604C11.3692 7.11685 12.0073 7.08828 12.3646 7.09261C12.7812 7.09766 12.876 7.23142 13.1734 7.47154C13.349 7.61331 13.4624 7.7509 13.8731 7.97557C14.2013 8.15511 14.798 8.41928 15.1594 8.58061C15.6303 8.79086 15.8575 8.86689 16.14 8.97237C16.5552 9.1274 16.8872 9.17511 17.0215 9.19906C17.1578 9.22337 17.6817 9.27121 18.4076 9.29055C18.8902 9.3034 19.157 9.22331 19.4026 9.1754C19.5776 9.14125 19.7728 9.19445 19.9847 9.2184C20.1576 9.23796 20.3119 9.25217 20.4515 9.27612C20.5797 9.29813 20.7921 9.19502 21.5112 8.82115C22.1686 8.47932 22.6591 8.31943 22.7791 8.25695C22.931 8.1779 23.0536 8.09836 23.1163 8.02607C23.2478 7.87472 22.6317 8.0594 21.6972 8.11164C20.838 8.15967 19.2008 8.30673 18.2475 8.40399C17.2941 8.50124 17.075 8.55838 16.8908 8.62115C16.7065 8.68392 16.5637 8.75059 16.3758 8.84683C16.1879 8.94308 15.9593 9.06689 15.5321 9.32114C15.1048 9.57539 14.4858 9.95634 14.1526 10.1669C13.7112 10.4457 13.5698 10.6172 13.0675 10.9956C12.7568 11.2296 12.214 11.6487 11.9153 11.8836C11.5089 12.2032 11.4241 12.2533 11.3046 12.3489C11.2164 12.4196 11.0613 12.5208 10.1733 12.9128C9.28529 13.3049 7.66627 13.9811 6.92747 14.2389C6.18867 14.4968 6.37914 14.3159 7.69152 13.4798C9.00391 12.6437 11.4324 11.158 12.0026 10.8546C12.5727 10.5511 11.2108 11.4749 10.014 12.1889C8.81719 12.9029 7.82673 13.3791 7.15935 13.6768C6.49198 13.9744 6.1777 14.0792 5.93485 14.1475C5.69199 14.2157 5.53009 14.2443 5.46573 14.1542C5.29088 13.9096 5.52634 13.4769 5.76991 12.8983C5.94858 12.4738 6.30872 11.8149 6.652 11.2572C6.99529 10.6995 7.32862 10.2709 7.78604 9.78347C8.24346 9.29603 8.81488 8.76271 9.11401 8.55463C9.41314 8.34656 9.42266 8.47989 9.4228 8.62952C9.42311 8.9412 9.37504 9.27929 9.29366 9.6676C9.24787 9.88607 9.16466 10.1416 9.0635 10.4027C8.96235 10.6637 8.83854 10.9208 8.67 11.2104C8.31164 11.8262 7.97132 12.2334 7.81735 12.23C7.42166 12.2215 7.86367 11.3416 8.04101 10.9387C8.13579 10.7234 8.26597 10.4977 8.4107 10.2752C8.55543 10.0527 8.71733 9.84321 8.91026 9.63528C9.10319 9.42734 9.32223 9.22735 9.54459 9.05289C9.76695 8.87844 9.986 8.73558 10.2084 8.6239C10.637 8.40858 11.0278 8.32895 11.3016 8.29042C11.4221 8.27345 11.5086 8.28999 11.6147 8.38061C11.8797 8.60704 12.0293 9.00022 12.1349 9.38867C12.1908 9.59429 12.2215 9.82474 12.2411 10.2091C12.2607 10.5936 12.2607 11.1269 12.2083 11.5492C12.1559 11.9716 12.0512 12.2668 11.9401 12.5284C11.7325 13.0171 11.4636 13.3776 11.1997 13.6465C10.6678 14.1882 10.0293 14.2449 9.94776 14.2163C9.82975 14.1749 9.7505 13.986 9.63535 13.7895C9.49889 13.5565 9.43276 13.246 9.38947 12.896C9.34063 12.501 9.41285 12.0634 9.52771 11.5982C9.58952 11.3478 9.71876 11.0853 9.86811 10.8337C10.0175 10.582 10.1984 10.3534 10.3964 10.169C10.7745 9.81683 11.1816 9.6663 11.5079 9.58463C11.8286 9.50436 12.0867 9.55952 12.2642 9.68405C12.4776 9.8338 12.635 10.126 12.7982 10.476C12.8879 10.6683 12.9424 10.9116 12.991 11.1485C13.0396 11.3855 13.0682 11.614 13.0686 11.9365C13.0691 12.259 13.0405 12.6686 12.9829 13.0319C12.9253 13.3952 12.8396 13.7 12.7336 13.9713C12.6275 14.2426 12.5037 14.4711 12.3685 14.6746C12.1102 15.0633 11.8099 15.3213 11.546 15.4847C11.3116 15.6297 11.0593 15.6396 10.8339 15.6398C10.5771 15.6399 10.2521 15.4676 9.76825 15.1565C9.46658 14.9626 9.08443 14.6454 8.80709 14.3932C8.52975 14.141 8.37737 13.9505 8.25602 13.7667C8.02948 13.4235 7.92254 13.0062 7.86482 12.5551C7.83647 12.3336 7.8452 12.1231 7.91663 11.8485C7.98805 11.5739 8.13091 11.2406 8.24736 11.0117C8.36381 10.7829 8.44952 10.6686 8.82224 10.4288C9.19496 10.1889 9.85209 9.82705 10.3716 9.63109C10.891 9.43514 11.2529 9.41609 11.5251 9.42056C11.9698 9.42787 12.3072 9.56876 12.6144 9.75576C12.9089 9.93506 13.1253 10.251 13.3271 10.5868C13.5244 10.9152 13.5496 11.328 13.5594 11.7787C13.5648 12.0294 13.5121 12.3245 13.4067 12.6481C13.3014 12.9716 13.13 13.3144 12.8893 13.6815C12.6486 14.0486 12.3438 14.4296 12.0011 14.7639C11.6584 15.0982 11.287 15.3744 10.948 15.5786C10.6091 15.7828 10.3138 15.9066 10.0284 16.0037C9.743 16.1008 9.47634 16.1675 9.1485 16.2113C8.82065 16.2552 8.43971 16.2743 8.05775 16.2317C7.6758 16.1891 7.30437 16.0844 6.96542 15.9304C6.62646 15.7764 6.33123 15.5764 6.11248 15.3877C5.89372 15.199 5.76039 15.0275 5.64885 14.8202C5.53731 14.6128 5.45159 14.3747 5.39791 14.1187C5.34424 13.8628 5.32519 13.5961 5.37252 13.2873C5.41985 12.9785 5.53413 12.6357 5.71205 12.3162C5.88997 11.9967 6.12806 11.711 6.39357 11.4686C6.65907 11.2262 6.94478 11.0357 7.26339 10.8804C7.582 10.7252 7.92485 10.6109 8.25385 10.5377C8.58285 10.4646 8.88761 10.436 9.17317 10.4403C9.45873 10.4446 9.71587 10.4827 9.97215 10.569C10.2284 10.6553 10.476 10.7886 10.7464 10.9907C11.0169 11.1927 11.3026 11.4593 11.5402 11.711C11.7779 11.9627 11.9588 12.1912 12.1235 12.4471C12.2881 12.7029 12.431 12.9791 12.5427 13.2356C12.6543 13.4922 12.7305 13.7208 12.7793 13.9671C12.878 14.4654 12.8191 14.9164 12.6898 15.2525C12.5674 15.5706 12.1952 15.7828 11.8496 16.0037C11.6885 16.1067 11.5421 16.1675 11.2923 16.2494C11.0425 16.3314 10.6902 16.4266 10.3706 16.4805C10.0509 16.5343 9.77475 16.5438 9.48961 16.5344C9.20448 16.525 8.91877 16.4965 8.64778 16.4437C8.12324 16.3414 7.67406 16.1314 7.32342 15.9251C7.05198 15.7653 6.88418 15.5063 6.72083 15.233C6.54741 14.9428 6.61348 14.5069 6.77596 14.0511C6.86294 13.807 7.10986 13.6048 7.34636 13.43C7.58287 13.2553 7.84001 13.1315 8.19151 13.0296C8.54302 12.9277 8.98111 12.8515 9.37822 12.817C9.77532 12.7825 10.1182 12.7921 10.4853 12.8446C10.8524 12.8971 11.2333 12.9924 11.5391 13.1081C11.8448 13.2238 12.0639 13.3571 12.2815 13.5115C12.4991 13.6659 12.7086 13.8374 12.907 14.0304C13.1054 14.2235 13.2864 14.433 13.4463 14.6552C13.6061 14.8775 13.7395 15.106 13.8558 15.3333C14.0808 15.773 14.2035 16.2243 14.2612 16.6467C14.3133 17.0279 14.2333 17.3412 14.1135 17.5859C13.9866 17.8452 13.7146 17.996 13.4364 18.0969C13.1488 18.2012 12.7536 18.1986 12.2549 18.1748C11.6763 18.1472 11.1851 17.9876 10.8728 17.8628C10.6566 17.7764 10.4059 17.5366 10.0889 17.2197C9.84732 16.9782 9.71212 16.6803 9.60159 16.3445C9.48891 16.0022 9.56667 15.6509 9.70072 15.3772C9.83051 15.1121 10.1719 15.0437 10.5739 14.986C10.8405 14.9477 11.2425 14.9663 11.5391 14.9902C11.8356 15.014 12.0166 15.0616 12.2669 15.148C12.5173 15.2345 12.8315 15.3583 13.0792 15.4792C13.511 15.69 13.7701 15.9369 13.962 16.1623C14.1683 16.4047 14.2996 16.7441 14.367 17.1089C14.4264 17.4303 14.2722 17.7259 14.0422 17.9898C13.7806 18.2899 13.3403 18.4575 12.8561 18.6207C12.5942 18.7089 12.2861 18.7648 11.7196 18.8087C11.1531 18.8526 10.334 18.8716 9.56927 18.8005C8.80449 18.7293 8.11879 18.5674 7.65126 18.4269C7.18374 18.2863 6.95517 18.1721 6.76124 18.0608C6.4072 17.8577 6.13412 17.5845 5.90844 17.2488C5.6678 16.891 5.65188 16.5259 5.6995 16.229C5.77128 15.7813 6.06428 15.4673 6.35187 15.3186C6.69783 15.1396 7.16931 15.1106 7.68734 15.144C7.95924 15.1615 8.24346 15.244 8.52874 15.3402C8.81401 15.4365 9.0902 15.5603 9.33724 15.686C9.58427 15.8116 9.79379 15.9354 10.0351 16.0992C10.2763 16.263 10.543 16.463 10.747 16.6279C11.0924 16.9071 11.3932 17.2728 11.6815 17.7096C11.9163 18.0654 11.9239 18.409 11.9288 18.6394C11.9329 18.8332 11.8379 18.9772 11.6991 19.0972C11.503 19.2666 10.9943 19.3238 10.3987 19.3528C10.1462 19.3651 9.9935 19.3247 9.71977 19.2433C9.44604 19.1619 9.05557 19.0286 8.74013 18.9028C8.18782 18.6825 7.83683 18.4402 7.59686 18.2148C7.35151 17.9843 7.20134 17.6425 7.09081 17.2731C6.9807 16.9051 7.07494 16.4408 7.25214 15.9702C7.41363 15.5414 7.86252 15.3424 8.25587 15.1935C8.65302 15.0431 9.09366 15.0624 9.53016 15.1197C9.76014 15.1499 9.99523 15.2532 10.2274 15.3593C10.4596 15.4653 10.6786 15.5891 10.8915 15.7339C11.1043 15.8786 11.3043 16.0405 11.4883 16.2144C11.8484 16.5547 12.1153 16.9175 12.3408 17.2724C12.4603 17.4603 12.5568 17.6843 12.6441 17.94C12.826 18.4727 12.8668 18.8901 12.8477 19.1156C12.8289 19.3383 12.6751 19.5158 12.5121 19.6598C12.3465 19.806 12.108 19.8722 11.7538 19.9345C11.5244 19.9749 11.19 20.0064 10.9278 20.026C10.4855 20.0591 10.1268 20.0266 9.80043 19.9739C9.50472 19.9262 9.27952 19.7769 9.09236 19.6283C8.89588 19.4723 8.75976 19.2006 8.64923 18.8888C8.53983 18.5801 8.60478 18.2673 8.7006 18.0272C8.78463 17.8166 9.04633 17.7086 9.31978 17.6077C9.59379 17.5066 10.0547 17.525 10.6593 17.6253C10.9658 17.6762 11.2448 17.8494 11.5016 17.9992C11.7583 18.149 11.9773 18.3014 12.1901 18.4798C12.403 18.6583 12.603 18.8583 12.8108 19.0899C13.0186 19.3215 13.2281 19.5787 13.417 19.8492C13.6058 20.1198 13.7677 20.396 13.8988 20.6954C14.0298 20.9948 14.125 21.3091 14.1884 21.571C14.2991 22.0287 14.3097 22.4008 14.2954 22.7081C14.2828 22.9803 14.1565 23.1714 14.0317 23.2819C13.9395 23.3635 13.8387 23.3645 13.7334 23.3549C13.6658 23.3488 13.5709 23.3264 13.3123 23.1785C13.0538 23.0306 12.6347 22.7544 12.2474 22.4597C11.8601 22.1651 11.5173 21.8603 11.2121 21.5366C10.9069 21.213 10.6498 20.8797 10.484 20.6508C10.1095 20.1339 10.0772 19.7968 10.0817 19.6611C10.0872 19.4943 10.4991 20.0344 10.8104 20.5511C11.0198 20.8987 11.2835 21.4488 11.5591 22.0665C11.8347 22.6842 12.1014 23.3604 12.1959 23.6659C12.2904 23.9714 12.2047 23.8857 12.0796 23.6748C11.9545 23.464 11.7926 23.1307 11.6092 22.6638C11.4258 22.1968 11.2258 21.6063 11.1085 21.2117C10.9393 20.6425 10.9332 20.4211 10.9522 20.4016C10.967 20.3865 11.0094 20.4583 11.2242 20.8828C11.4391 21.3074 11.8295 22.1073 12.0783 22.5956C12.4084 23.2436 12.5871 23.4695 12.6738 23.5802C12.7642 23.6955 12.2235 23.174 11.9216 22.6283C11.7293 22.2805 11.515 21.7587 11.3496 21.3462C11.069 20.6461 10.9242 20.1818 10.8708 20.0367C10.8656 20.0225 10.9793 20.2153 11.0951 20.4941C11.2108 20.7729 11.3441 21.1538 11.4271 21.412C11.5489 21.7908 11.5966 22.1596 11.6447 22.5441C11.7 22.9869 11.9236 23.4407 11.9529 23.5805C11.9583 23.606 11.915 23.6144 11.8717 23.6145C11.6085 23.6154 11.2143 23.2891 10.7492 22.9153C10.1853 22.462 9.86565 22.1622 9.86046 22.1666C9.83533 22.1883 9.96002 22.2568 10.1707 22.4769C10.3814 22.6969 10.7242 23.0684 10.9294 23.2835C11.2895 23.661 11.4711 23.8256 11.6826 24.0274C11.8005 24.1397 11.971 24.2871 12.187 24.4598C12.386 24.619 12.5103 24.759 12.792 25.0071C13.028 25.2151 13.4451 25.5982 13.6848 25.8087C14.0585 26.137 14.2416 26.2787 14.4338 26.3989C14.5128 26.4483 14.6249 26.5373 15.0837 26.8148C15.5426 27.0922 16.3426 27.5589 16.7404 27.8088C17.1382 28.0587 17.1097 28.0778 17.0807 28.0924C17.0249 28.1204 16.9556 28.1358 16.8931 28.1359C16.867 28.136 16.8592 28.098 16.8543 28.069C16.8494 28.04 16.8494 28.0114 17.0065 27.7681C17.1636 27.5248 17.4779 27.0677 17.6636 26.8132C17.9759 26.3852 18.2242 26.2412 18.5502 25.9634C18.9283 25.6412 19.2441 25.4141 19.3545 25.3084C19.4506 25.2165 19.6282 25.0493 19.8539 24.8139C20.0237 24.6369 20.1772 24.4908 20.3829 24.2562C20.9538 23.6052 21.1679 23.4712 21.3364 23.3121C21.529 23.1302 21.7838 22.8265 22.0431 22.5526C22.1349 22.4557 22.1786 22.374 22.2455 22.2734C22.3526 22.1125 22.6671 21.7417 23.0133 21.2801C23.163 21.0805 23.227 21.0176 23.2941 20.9504C23.3282 20.9162 23.3803 20.9022 23.4048 20.9209C23.4682 20.9694 23.4008 21.2271 23.3432 21.5345C23.2993 21.7686 23.1419 22.0923 22.9354 22.4863C22.7937 22.7566 22.5364 23.0355 22.1719 23.4145C21.9849 23.6091 21.7693 23.7841 21.1757 24.1154C20.5821 24.4467 19.6106 24.9229 19.0816 25.1872C18.4916 25.4821 18.3033 25.5956 18.0537 25.7299C17.833 25.8487 17.7059 25.9711 17.6482 26.0621C17.618 26.1098 17.6286 26.1817 17.6762 26.2161C17.9053 26.3813 18.1469 26.2983 18.6609 26.3462C18.8077 26.3599 18.7255 26.6057 18.8441 26.6448C18.9863 26.6917 19.3151 26.4934 20.0724 25.6773C20.8297 24.8611 22.0106 23.3564 22.6428 22.5622C23.2749 21.768 23.3225 21.7299 23.3947 21.6531C23.4668 21.5763 23.5621 21.462 23.7683 21.2556C23.9745 21.0491 24.2888 20.7538 24.5173 20.5303C24.8855 20.1703 25.1785 19.8834 25.4762 19.6481C25.7067 19.4659 25.8723 19.3917 25.9587 19.3533C26.0296 19.3218 26.3413 19.1619 26.8265 18.9266C27.1396 18.7748 27.3721 18.5749 27.6408 18.3256C28.1522 17.8509 28.2864 17.4881 28.4311 17.1754C28.5212 16.9808 28.5758 16.833 28.595 16.761C28.6119 16.6978 28.5193 16.9167 28.2891 17.5728C28.1477 17.976 28.0209 18.5432 27.933 18.8612C27.8284 19.2399 27.7014 19.5238 27.5144 19.9654C27.336 20.3866 27.0192 20.746 26.7405 21.0488C26.6263 21.1729 26.5571 21.2277 26.5228 21.2429C26.489 21.2577 26.4694 21.019 26.4453 20.6973C26.4277 20.4618 26.5072 20.2202 26.8746 19.3324C27.1846 18.5832 27.7848 17.2445 28.1176 16.5051C28.4956 15.6651 28.5949 15.5343 28.7572 15.2385C28.8969 14.9839 29.1291 14.5046 29.2851 14.2117C29.5914 13.6363 29.768 13.3802 29.9221 13.1635C30.0141 13.0342 30.0572 12.9176 30.1003 12.8267C30.129 12.7663 30.153 12.6691 30.1106 13.0391C30.0682 13.4091 29.9539 14.2472 29.8712 14.7694C29.7594 15.4757 29.6633 15.7352 29.6105 15.8982C29.5528 16.0763 29.5475 16.3023 29.5475 16.466C29.5475 16.4737 29.5094 16.2188 29.4041 15.3969C29.3234 14.7671 29.2416 13.6988 29.1259 12.9017C29.0102 12.1046 28.8768 11.6094 28.8034 11.321C28.6861 10.8604 28.6339 10.7055 28.5666 10.5322C28.512 10.3916 28.4226 10.2057 28.3836 10.0367C28.3464 9.8752 28.3164 9.68564 28.3209 9.21537C28.3216 9.13516 28.3637 9.16501 28.4213 9.24639C28.5704 9.45713 28.7672 9.85562 29.0165 10.5262C29.1681 10.9338 29.304 11.5015 29.392 11.81C29.5117 12.2295 29.5856 12.3777 29.61 12.5129C29.6152 12.5418 29.6243 12.5704 29.6149 12.5613C29.4908 12.441 29.3276 12.083 28.9542 11.4648C28.73 11.0937 28.3712 10.6467 28.0613 10.3064C27.7513 9.96615 27.4847 9.75663 27.1759 9.54394C26.5364 9.10348 26.1234 8.86776 26.0322 8.80528C25.8952 8.71142 25.7485 8.63688 25.6183 8.55983C25.4699 8.47195 25.3156 8.39619 25.1567 8.27628C24.9956 8.15465 24.8348 8.03141 24.7234 7.82434C24.7025 7.78557 24.7372 7.75205 24.7613 7.73257C24.8881 7.63011 25.1505 7.70328 25.4993 7.81294C25.7763 7.90005 26.2385 8.10356 26.5313 8.2112C26.9229 8.35519 27.0844 8.37657 27.128 8.39114C27.3615 8.46926 26.4047 8.17513 26.0185 8.09808C25.7717 8.04886 25.5465 8.02102 25.2691 7.93502C24.7387 7.77053 24.3629 7.63603 24.2527 7.63127C23.968 7.61897 23.7191 7.62622 23.4259 7.69347C23.1944 7.74654 22.9399 7.75147 22.6477 7.73719C21.9054 7.7009 21.6031 7.60718 21.3715 7.55451C21.0613 7.48396 20.7748 7.35725 20.6545 7.34268C20.467 7.31997 19.9697 7.47096 19.4255 7.74051C19.1763 7.86394 18.7247 8.04584 18.3798 8.17253C17.8145 8.38019 17.4947 8.42476 17.3126 8.45824C17.0695 8.50293 16.6026 8.61668 16.0642 8.70326C15.6792 8.76518 15.4843 8.76156 15.3251 8.78551C15.1279 8.8152 14.4777 9.02937 14.0653 9.13658C13.7256 9.22489 13.2517 9.19416 13.2181 9.2565C13.1268 9.42572 13.1744 9.75086 13.4514 10.3692C13.6008 10.7025 13.9853 11.1852 14.3524 11.6785C14.7195 12.1719 15.1005 12.6385 15.3967 13.0361C15.693 13.4336 15.893 13.7479 16.0674 14.0574C16.2419 14.3669 16.3847 14.6622 16.5393 15.0809C16.6938 15.4997 16.8557 16.033 16.9629 16.4411C17.0701 16.8491 17.1178 17.1158 17.1518 17.4532C17.1859 17.7905 17.2049 18.1905 17.2052 18.5013C17.2057 19.022 17.1287 19.409 17.0329 19.7592C16.9833 19.9404 16.899 20.1189 16.774 20.3026C16.6491 20.4863 16.4777 20.6673 16.0179 21.0033C15.5582 21.3394 14.8153 21.8251 14.2422 22.2515C13.669 22.6779 13.2881 23.0303 13.0728 23.2356C12.8137 23.4827 12.7707 23.5757 12.7419 23.6191C12.7126 23.6635 12.5695 23.1951 12.4014 22.418C12.3143 22.0152 12.2809 21.5838 12.2564 21.3154C12.2318 21.047 12.2318 20.9518 12.2461 20.917C12.2604 20.8823 12.289 20.9108 12.4466 21.3636C12.6041 21.8164 12.8898 22.6926 13.0942 23.2583C13.3849 24.0631 13.5591 24.307 13.6167 24.3359C13.7732 24.4143 14.2015 24.4034 14.7384 24.3844C15.3917 24.3612 15.8765 24.2975 16.1117 24.3262C16.4887 24.3722 16.6658 24.595 17.0003 25.0247C17.2692 25.3703 17.6967 26.0068 17.8938 26.3164C18.0909 26.6259 18.0338 26.5973 17.9948 26.4873C17.9558 26.3774 17.9368 26.1869 17.8841 25.8412C17.8315 25.4954 17.7457 25.0002 17.7016 24.7261C17.6574 24.4138 17.6479 24.346 17.6335 24.2789C17.6286 24.2403 17.6286 24.1927 17.6286 24.1437" stroke="#1B202B" stroke-width="2" stroke-linecap="round"/>
<path d="M14.3893 23.7332C14.4173 23.7468 14.8525 24.2809 15.6218 25.0999C16.0042 25.507 16.4052 25.8629 16.7194 26.1346C17.5098 26.8183 17.7426 26.8607 17.9056 27.0511C18.1591 27.3471 18.196 27.7663 18.2595 27.823C18.4111 27.9583 18.8868 27.3451 19.7249 26.4159C20.2849 25.7951 21.0534 24.8142 22.0251 23.8818C22.9967 22.9495 24.1316 22.0808 24.8984 21.4301C25.6651 20.7795 26.0294 20.3732 26.2451 20.1428C26.5976 19.7664 26.786 19.6718 26.9208 19.5446C27.0545 19.4185 27.2811 19.2905 27.4579 19.0997C27.5272 19.0249 27.5367 18.9789 27.4038 19.0062C27.2709 19.0336 26.9907 19.1317 26.0477 19.4064C25.1047 19.6811 23.5075 20.1295 21.7389 20.7317C19.9703 21.334 18.0788 22.0766 16.9854 22.4801C15.668 22.9663 15.3662 22.983 15.3516 22.9342C15.3319 22.8685 15.4771 22.7312 17.2299 21.6783C18.9828 20.6254 22.3874 18.6638 23.5949 18.2068C24.8024 17.7497 23.7096 18.8566 22.0537 20.2324C20.3979 21.6082 18.2122 23.2195 17.0021 24.0986C15.7921 24.9777 15.624 25.0757 16.2239 24.4607C16.8238 23.8458 18.1969 22.5147 19.2755 21.6539C20.3541 20.7931 21.0967 20.4428 21.5003 20.3114C21.9038 20.18 21.9459 20.2781 21.9605 20.3776C21.9893 20.5732 21.8066 21.0126 21.5313 21.6201C21.4061 21.8962 21.2699 22.0876 21.0439 22.3848C20.8178 22.682 20.4955 23.0743 20.1194 23.4726C19.7432 23.8708 19.3229 24.2631 19.1203 24.3741C18.9178 24.4852 18.9458 24.303 18.9883 24.1321C19.0307 23.9612 19.0868 23.8071 19.4519 23.2303C19.8171 22.6535 20.4896 21.6588 20.9481 21.0202C21.6027 20.1086 21.9319 19.7715 21.9399 19.728C22.0073 19.3645 21.1574 20.4895 20.6482 20.9211C20.4326 21.1037 20.1516 21.255 19.805 21.4605C19.6907 21.5282 19.6685 21.4558 19.6823 21.3499C19.7166 21.0861 19.8655 20.7909 20.6093 19.8221C21.2544 18.9818 22.5021 17.4801 23.0882 16.6866C23.6743 15.8931 23.5762 15.865 23.4697 15.8576C23.3631 15.8502 23.251 15.8642 22.836 15.9695C22.421 16.0748 21.7064 16.2709 20.7989 16.5681C19.8914 16.8653 18.8125 17.2576 18.0606 17.5088C17.3087 17.7599 16.9164 17.858 16.5461 17.9295C15.8436 18.0653 15.241 18.0864 14.8449 18.0654C14.6996 18.0577 14.6729 18.0023 14.6515 17.9457C14.6049 17.8226 14.6716 17.4105 14.9809 16.6278C15.1671 16.1567 15.6265 15.6349 16.095 15.1292C16.5635 14.6236 17.0819 14.1752 17.4611 13.8672C18.4034 13.1017 18.8044 12.9775 18.8681 13.0193C19.0213 13.1199 18.8478 13.4573 18.728 13.7534C18.5687 14.1474 18.0725 14.7425 17.4437 15.4139C17.0044 15.883 16.5287 16.1321 16.0417 16.3652C15.1955 16.7702 14.7307 16.7278 14.4619 16.6437C14.1917 16.5592 14.3184 16.0922 14.3817 15.803C14.4181 15.6367 14.515 15.4439 14.7544 15.1326C14.9939 14.8214 15.3862 14.4011 15.7354 14.0725C16.0846 13.7439 16.3789 13.5197 16.6986 13.3131C17.0183 13.1066 17.3545 12.9244 17.843 12.7045C18.3315 12.4846 18.962 12.2324 19.1677 12.1585C19.3734 12.0846 19.1352 12.1967 18.7393 12.3455C18.3434 12.4943 17.7969 12.6765 17.1441 12.8474C16.4914 13.0183 15.7488 13.1724 15.2682 13.2518C14.7876 13.3312 14.5914 13.3312 14.4903 13.1981C14.2413 12.87 14.5154 12.3003 14.7975 11.8556C14.9423 11.6274 15.1357 11.4248 15.4817 11.1414C15.8278 10.858 16.3322 10.5078 16.7671 10.2362C17.2021 9.96473 17.5524 9.78259 17.957 9.6187C18.3616 9.45481 18.81 9.31471 19.0549 9.27055C19.2999 9.22639 19.3279 9.28244 19.3074 9.36035C19.2868 9.43826 19.2167 9.53633 18.8374 9.86007C18.458 10.1838 17.7715 10.7302 17.1796 11.1658C16.1312 11.9375 15.5645 12.2693 15.4796 12.305C15.2469 12.4027 15.9857 11.4945 16.8765 10.8708C17.2962 10.5769 17.8538 10.5014 18.4255 10.3742C19.0054 10.2453 19.5806 10.2318 20.082 10.2458C20.8358 10.2669 21.1112 10.4861 21.2031 10.5708C21.2441 10.6086 21.253 10.6555 21.1971 10.7402C20.8614 11.2496 20.3911 11.4338 20.3263 11.5894C20.2237 11.8361 20.9825 11.6473 21.8329 11.3877C22.5094 11.1812 23.6501 10.7217 24.3821 10.4279C25.4041 10.0177 25.8091 9.73758 26.0211 9.53973C26.1099 9.45689 26.1492 9.39792 26.0797 9.38306C26.0103 9.3682 25.8282 9.39622 24.4664 10.3214C23.1045 11.2465 20.5686 13.0679 19.3252 13.8872C18.0818 14.7064 18.2079 14.4682 19.1416 13.5048C20.0752 12.5415 21.8126 10.8602 22.8126 9.85391C23.8127 8.84767 24.0229 8.56745 24.1031 8.4231C24.1834 8.27874 24.1273 8.27874 24.0774 8.27174C23.8985 8.24661 23.7732 7.96881 23.6947 7.67861C23.6267 7.42749 23.7155 7.20372 23.765 7.09779C23.7879 7.04859 23.8004 7.00587 23.7025 6.99823C23.0381 6.94634 22.5573 7.10352 22.294 7.17443C22.1721 7.20726 22.3989 7.54126 22.7572 8.17409C23.0326 8.66035 23.5499 9.45142 23.8728 10.0099C24.3551 10.8443 24.4937 11.348 24.5574 11.659C24.6381 12.0531 24.7065 12.3682 24.7135 12.4742C24.7197 12.5683 25.0431 12.2591 25.531 11.6654C26.0021 11.092 26.1492 10.602 26.2699 9.97216C26.2933 9.85044 26.3054 9.80806 26.3336 9.80742C26.3619 9.80679 26.4039 9.84882 26.5867 10.1997C26.7695 10.5506 27.0917 11.2092 27.3278 11.8006C27.5638 12.392 27.7039 12.8964 27.8041 13.3664C27.9043 13.8364 27.9604 14.2567 27.9893 14.7045C28.0181 15.1522 28.0181 15.6145 27.9831 15.7617C27.9574 15.8694 27.7778 15.3989 27.7214 14.7802C27.6778 14.3029 27.6649 13.4891 27.6434 13.0285C27.622 12.5678 27.608 12.4837 27.6008 12.4684C27.5936 12.4532 27.5936 12.5092 27.4885 12.9584C27.3834 13.4076 27.1732 14.2483 26.9529 15.0036C26.7325 15.7589 26.5083 16.4034 26.3298 16.8545C26.1513 17.3056 26.0252 17.5438 25.9392 17.6595C25.8417 17.7907 25.3756 17.1163 24.7532 16.0979C24.4464 15.596 24.3532 15.2719 24.2543 14.9119C24.0813 14.2822 24.1685 13.9264 24.2108 13.785C24.2291 13.7238 24.281 13.6997 24.3797 13.7763C24.6655 13.9982 24.8614 14.3629 24.9956 14.6733C25.1486 15.0272 25.2015 15.4799 25.237 16.037C25.2821 16.7467 25.1739 17.3485 25.1032 17.6177C25.0833 17.6936 25.0605 17.6347 25.0533 17.5077C25.0461 17.3808 25.0461 17.1846 25.2633 16.341C25.4804 15.4974 25.9148 14.0122 26.1526 13.107C26.3903 12.2018 26.4183 11.9216 26.4258 11.7422C26.4332 11.5628 26.4192 11.4928 25.9286 12.2343C25.438 12.9758 24.4712 14.531 23.9242 15.3952C23.1543 16.6114 22.9806 16.8403 22.8604 16.9184C22.7835 16.9684 22.7534 16.3503 22.7674 15.5237C22.7736 15.1592 22.8095 14.9072 22.936 14.3219C23.0625 13.7366 23.2867 12.8259 23.4022 12.3218C23.5176 11.8176 23.5176 11.7475 23.4616 11.7955C23.4056 11.8435 23.2935 12.0116 22.5072 13.0019C21.7208 13.9922 20.2637 15.7997 19.464 16.8218C18.6643 17.844 18.5663 18.0261 18.5017 18.0709C18.4372 18.1157 18.4092 18.0176 18.3947 17.869C18.3614 17.5256 18.5204 16.8458 18.7817 16.0049C18.8957 15.6381 19.001 15.4022 19.1917 15.0554C19.6368 14.2455 20.1194 13.6161 20.4091 13.4031C20.5102 13.3288 20.6008 13.4985 20.6509 13.6405C20.7528 13.9293 20.7579 14.3196 20.6809 14.9465C20.6308 15.3534 20.4497 15.9236 20.3072 16.3807C20.1648 16.8377 20.0387 17.16 19.8546 17.5362C19.4584 18.3459 19.0329 18.9339 18.7783 19.1466C18.6649 19.2414 18.5506 18.6001 18.5219 17.7251C18.507 17.2704 18.6053 16.794 18.7465 16.3174C19.0312 15.3562 19.4405 14.734 19.6595 14.4512C19.7499 14.3345 19.8086 14.2805 19.8725 14.3217C20.0619 14.4438 20.0786 14.8855 20.0366 15.4846C20.0111 15.8471 19.9105 16.3219 19.7761 16.8475C19.6417 17.3731 19.4596 17.9336 19.3097 18.3344C19.1598 18.7352 19.0477 18.9593 19.011 18.9978C18.931 19.0815 19.2277 18.5131 19.7697 17.9285C20.1294 17.5404 20.718 17.0216 21.147 16.6562C21.5761 16.2909 21.8423 16.1087 22.2526 15.8818C22.663 15.6549 23.2094 15.3887 23.5049 15.2936C23.8004 15.1985 23.8284 15.2825 23.8219 15.3889C23.8072 15.6259 23.3937 16.2837 22.7861 17.2094C22.5239 17.609 22.3186 17.841 21.9794 18.1599C21.6402 18.4787 21.1638 18.871 20.7923 19.1502C20.1852 19.6064 19.6986 19.8403 19.2821 20.0169C18.8914 20.1826 18.5934 20.2233 18.424 20.2165C18.2382 20.209 18.112 19.9698 18.013 19.7089C17.7817 19.0989 18.0534 18.4859 18.3988 17.8576C18.5763 17.5346 18.8703 17.2712 19.2596 17.0148C19.6489 16.7583 20.1533 16.5342 20.6583 16.3626C21.1634 16.1911 21.6538 16.079 22.0185 16.0213C22.3832 15.9635 22.6074 15.9635 22.7789 16.0406C23.4162 16.3269 23.4319 17.1914 23.4612 17.9138C23.4761 18.283 23.2362 18.7067 22.9116 19.1517C22.6083 19.5675 22.3293 19.7138 22.2446 19.728C22.2025 19.7351 22.1599 19.7142 22.1242 19.651C22.0326 19.4885 22.0316 19.234 22.0597 18.9589C22.0929 18.6325 22.4957 18.0482 23.0746 17.3133C23.5395 16.7231 24.194 16.4883 24.6888 16.3115C24.8873 16.2405 24.9875 16.2327 25.0661 16.2395C25.2046 16.2515 25.3144 16.3592 25.4344 16.5072C25.8433 17.0117 25.7118 17.8996 25.5352 18.3959C25.2984 19.0613 24.6793 19.4017 24.3685 19.5155C23.7161 19.7544 23.3351 19.3746 23.0377 19.1561C22.9367 19.082 22.8545 18.9381 22.8179 18.7681C22.7814 18.598 22.8095 18.3879 22.936 18.1745C23.2165 17.7016 23.6718 17.4364 23.9964 17.2457C24.3364 17.046 24.5787 16.9685 24.6704 17.0033C24.8504 17.0717 24.8338 17.4899 24.8058 17.8854C24.7601 18.5298 24.3817 18.8073 24.2545 18.9487C24.1974 19.006 24.1554 19.0341 24.0216 19.0065C23.8879 18.9789 23.6637 18.8948 23.3478 18.7657" stroke="#1B202B" stroke-width="2" stroke-linecap="round"/>
<path d="M2.83325 13.4584C2.83328 11.8819 3.31151 10.3425 4.20477 9.04354C5.09804 7.74457 6.36432 6.74712 7.83636 6.18292C9.30841 5.61872 10.917 5.51431 12.4496 5.8835C13.9822 6.25268 15.3668 7.07808 16.4205 8.25068C16.4947 8.33004 16.5844 8.3933 16.6841 8.43655C16.7838 8.4798 16.8913 8.50212 16.9999 8.50212C17.1086 8.50212 17.2161 8.4798 17.3157 8.43655C17.4154 8.3933 17.5051 8.33004 17.5793 8.25068C18.6297 7.07046 20.0146 6.23812 21.5497 5.86445C23.0848 5.49078 24.6974 5.59351 26.1727 6.15895C27.6479 6.7244 28.916 7.72574 29.8082 9.02971C30.7003 10.3337 31.1741 11.8784 31.1666 13.4584C31.1666 16.7025 29.0416 19.125 26.9166 21.25L19.1363 28.7768C18.8723 29.0799 18.5468 29.3235 18.1815 29.4912C17.8162 29.6589 17.4193 29.747 17.0173 29.7495C16.6153 29.7521 16.2174 29.669 15.85 29.506C15.4826 29.3429 15.154 29.1035 14.8863 28.8037L7.08325 21.25C4.95825 19.125 2.83325 16.7167 2.83325 13.4584Z" stroke="#1B202B" stroke-width="2" stroke-linecap="round" stroke-linejoin="round"/>
</svg>
