<svg width="54" height="54" viewBox="0 0 54 54" fill="none" xmlns="http://www.w3.org/2000/svg">
<g clip-path="url(#clip0_63_766)">
<path d="M18.8101 1.7761C13.4147 3.64783 8.76169 7.20043 5.53455 11.9121C2.3074 16.6237 0.676236 22.2461 0.880638 27.9533C1.08504 33.6605 3.11424 39.1518 6.67017 43.6205C10.2261 48.0892 15.1214 51.2998 20.6369 52.7808C25.1084 53.9346 29.7933 53.9853 34.2887 52.9284C38.3612 52.0137 42.1263 50.057 45.2153 47.25C48.4303 44.2393 50.764 40.4092 51.9653 36.1716C53.2711 31.5633 53.5034 26.7171 52.6445 22.005H27.5345V32.4211H42.0766C41.7859 34.0824 41.1631 35.668 40.2454 37.083C39.3277 38.4979 38.134 39.7132 36.7356 40.6561C34.9599 41.8307 32.9581 42.6211 30.8589 42.9764C28.7535 43.3679 26.594 43.3679 24.4886 42.9764C22.3547 42.5352 20.3361 41.6545 18.5612 40.3903C15.71 38.372 13.5691 35.5047 12.4441 32.1975C11.3 28.8284 11.3 25.1758 12.4441 21.8067C13.2449 19.4451 14.5688 17.2949 16.3169 15.5166C18.3174 13.4441 20.85 11.9627 23.6371 11.2349C26.4241 10.507 29.3577 10.5609 32.1161 11.3906C34.2709 12.0521 36.2414 13.2078 37.8705 14.7656C39.5101 13.1344 41.147 11.4989 42.7811 9.85923C43.6248 8.97751 44.5445 8.13798 45.3756 7.23516C42.8889 4.92108 39.9701 3.12044 36.7862 1.93641C30.9884 -0.168786 24.6446 -0.225361 18.8101 1.7761Z" fill="white"/>
<path d="M18.8101 1.77608C24.6441 -0.226746 30.9879 -0.17166 36.7862 1.93217C39.9706 3.12424 42.8881 4.93355 45.3714 7.25623C44.5276 8.15905 43.6375 9.0028 42.7768 9.88029C41.14 11.5144 39.5045 13.1428 37.8704 14.7656C36.2413 13.2078 34.2709 12.0521 32.1161 11.3906C29.3586 10.558 26.425 10.501 23.6373 11.2258C20.8495 11.9507 18.3153 13.4294 16.3126 15.4997C14.5645 17.278 13.2406 19.4282 12.4398 21.7898L3.69434 15.0187C6.82468 8.8111 12.2447 4.06274 18.8101 1.77608Z" fill="#E33629"/>
<path d="M1.37419 21.7266C1.84425 19.397 2.62464 17.1409 3.6945 15.0188L12.44 21.8068C11.2959 25.1759 11.2959 28.8284 12.44 32.1975C9.52622 34.4475 6.61106 36.7088 3.6945 38.9813C1.01623 33.6501 0.199403 27.5759 1.37419 21.7266Z" fill="#F8BD00"/>
<path d="M27.5346 22.0007H52.6446C53.5035 26.7128 53.2712 31.559 51.9654 36.1673C50.764 40.4049 48.4304 44.235 45.2154 47.2457C42.393 45.0435 39.558 42.8582 36.7357 40.656C38.1349 39.7122 39.3292 38.4956 40.247 37.0791C41.1647 35.6626 41.7871 34.0754 42.0766 32.4126H27.5346C27.5304 28.9448 27.5346 25.4728 27.5346 22.0007Z" fill="#587DBD"/>
<path d="M3.69019 38.9813C6.60675 36.7313 9.5219 34.47 12.4357 32.1975C13.5629 35.5058 15.7069 38.3733 18.5613 40.3903C20.3416 41.6486 22.3646 42.5222 24.5013 42.9553C26.6067 43.3468 28.7662 43.3468 30.8716 42.9553C32.9708 42.6 34.9726 41.8096 36.7483 40.635C39.5707 42.8372 42.4057 45.0225 45.228 47.2247C42.1394 50.0332 38.3743 51.9914 34.3014 52.9074C29.806 53.9642 25.1211 53.9135 20.6496 52.7597C17.113 51.8154 13.8096 50.1508 10.9464 47.8702C7.91594 45.4642 5.44078 42.4321 3.69019 38.9813Z" fill="#319F43"/>
</g>
<defs>
<clipPath id="clip0_63_766">
<rect width="54" height="54" fill="white" transform="translate(-0.0012207)"/>
</clipPath>
</defs>
</svg>
