<svg width="32" height="32" viewBox="0 0 32 32" fill="none" xmlns="http://www.w3.org/2000/svg">
<path d="M15.9997 1.8335L11.7497 6.0835H6.08301V11.7502L1.83301 16.0002L6.08301 20.2502V25.9168H11.7497L15.9997 30.1668L20.2497 25.9168H25.9163V20.2502L30.1663 16.0002L25.9163 11.7502V6.0835H20.2497L15.9997 1.8335Z" stroke="black" stroke-width="2" stroke-linejoin="round"/>
<path d="M16 20.25C17.1272 20.25 18.2082 19.8022 19.0052 19.0052C19.8022 18.2082 20.25 17.1272 20.25 16C20.25 14.8728 19.8022 13.7918 19.0052 12.9948C18.2082 12.1978 17.1272 11.75 16 11.75C14.8728 11.75 13.7918 12.1978 12.9948 12.9948C12.1978 13.7918 11.75 14.8728 11.75 16C11.75 17.1272 12.1978 18.2082 12.9948 19.0052C13.7918 19.8022 14.8728 20.25 16 20.25Z" stroke="black" stroke-width="2" stroke-linejoin="round"/>
</svg>
