<svg width="68" height="68" viewBox="0 0 68 68" fill="none" xmlns="http://www.w3.org/2000/svg">
<g filter="url(#filter0_d_63_402)">
<g clip-path="url(#clip0_63_402)">
<rect x="3.99878" y="2" width="60" height="60" rx="30" fill="white"/>
<mask id="mask0_63_402" style="mask-type:luminance" maskUnits="userSpaceOnUse" x="3" y="2" width="61" height="60">
<path d="M33.9988 62C50.5673 62 63.9988 48.5685 63.9988 32C63.9988 15.4315 50.5673 2 33.9988 2C17.4302 2 3.99878 15.4315 3.99878 32C3.99878 48.5685 17.4302 62 33.9988 62Z" fill="white"/>
</mask>
<g mask="url(#mask0_63_402)">
<path d="M33.9988 2L3.99878 32V39.5L7.74878 43.25L3.99878 47V62L6.5769 61.0625L9.27222 62H11.9675L18.2957 58.25L24.6238 62H28.3738L33.9988 58.25L39.6238 62H43.3738L49.7019 58.25L56.03 62H63.9988L63.0613 59.4219L63.9988 56.7266V54.0312L60.2488 47.7031L63.9988 41.375V37.625L60.2488 32L63.9988 26.375V22.625L60.2488 16.2969L63.9988 9.96875V2H33.9988Z" fill="#EEEEEE"/>
<path d="M30.2488 9.5V17H48.9988L56.4988 9.5H30.2488ZM30.2488 24.5L33.9988 32L28.3738 37.625V62H39.6238V37.625H63.9988V26.375H39.6238L41.4988 24.5H30.2488ZM3.99878 39.5V47H18.9988L11.4988 54.5H3.99878V62H9.27222L24.6238 46.6484V41.375L26.4988 39.5H3.99878ZM43.3738 41.375L63.9988 62V56.7266L48.6472 41.375H43.3738Z" fill="#D80027"/>
<path d="M3.99878 2V32H33.9988V2H3.99878ZM63.9988 9.96875L51.3425 22.625H63.9988V9.96875ZM51.3425 41.375L63.9988 54.0312V41.375H51.3425ZM24.6238 49.3438L11.9675 62H24.6238V49.3438ZM43.3738 49.3438V62H56.03L43.3738 49.3438Z" fill="#0052B4"/>
<path d="M25.9128 30.4766L32.5925 25.6719H24.3894L31.0691 30.4766L28.491 22.625L25.9128 30.4766ZM16.4207 30.4766L23.1003 25.6719H14.8972L21.5769 30.4766L18.9988 22.625L16.4207 30.4766ZM6.92847 30.4766L13.6082 25.6719H5.40503L12.0847 30.4766L9.50659 22.625L6.92847 30.4766ZM25.9128 20.9844L32.5925 16.1797H24.3894L31.0691 20.9844L28.491 13.1328L25.9128 20.9844ZM16.4207 20.9844L23.1003 16.1797H14.8972L21.5769 20.9844L18.9988 13.1328L16.4207 20.9844ZM6.92847 20.9844L13.6082 16.1797H5.40503L12.0847 20.9844L9.50659 13.1328L6.92847 20.9844ZM25.9128 11.375L32.5925 6.57031H24.3894L31.0691 11.375L28.491 3.52344L25.9128 11.375ZM16.4207 11.375L23.1003 6.57031H14.8972L21.5769 11.375L18.9988 3.52344L16.4207 11.375ZM6.92847 11.375L13.6082 6.57031H5.40503L12.0847 11.375L9.50659 3.52344L6.92847 11.375Z" fill="#EEEEEE"/>
</g>
</g>
</g>
<defs>
<filter id="filter0_d_63_402" x="-0.0012207" y="0" width="68" height="68" filterUnits="userSpaceOnUse" color-interpolation-filters="sRGB">
<feFlood flood-opacity="0" result="BackgroundImageFix"/>
<feColorMatrix in="SourceAlpha" type="matrix" values="0 0 0 0 0 0 0 0 0 0 0 0 0 0 0 0 0 0 127 0" result="hardAlpha"/>
<feOffset dy="2"/>
<feGaussianBlur stdDeviation="2"/>
<feComposite in2="hardAlpha" operator="out"/>
<feColorMatrix type="matrix" values="0 0 0 0 0 0 0 0 0 0 0 0 0 0 0 0 0 0 0.6 0"/>
<feBlend mode="normal" in2="BackgroundImageFix" result="effect1_dropShadow_63_402"/>
<feBlend mode="normal" in="SourceGraphic" in2="effect1_dropShadow_63_402" result="shape"/>
</filter>
<clipPath id="clip0_63_402">
<rect x="3.99878" y="2" width="60" height="60" rx="30" fill="white"/>
</clipPath>
</defs>
</svg>
