<svg width="54" height="54" viewBox="0 0 54 54" fill="none" xmlns="http://www.w3.org/2000/svg">
<g clip-path="url(#clip0_294_1832)">
<path d="M41.3425 0H12.655C5.66518 0 -0.0012207 5.6664 -0.0012207 12.6562V41.3438C-0.0012207 48.3336 5.66518 54 12.655 54H41.3425C48.3324 54 53.9988 48.3336 53.9988 41.3438V12.6562C53.9988 5.6664 48.3324 0 41.3425 0Z" fill="url(#paint0_radial_294_1832)"/>
<path d="M41.3425 0H12.655C5.66518 0 -0.0012207 5.6664 -0.0012207 12.6562V41.3438C-0.0012207 48.3336 5.66518 54 12.655 54H41.3425C48.3324 54 53.9988 48.3336 53.9988 41.3438V12.6562C53.9988 5.6664 48.3324 0 41.3425 0Z" fill="url(#paint1_radial_294_1832)"/>
<path d="M27.0007 5.90625C21.272 5.90625 20.553 5.93135 18.3031 6.03366C16.0575 6.13659 14.5246 6.49202 13.1834 7.01367C11.7959 7.55241 10.6191 8.27318 9.44667 9.44599C8.27322 10.6186 7.55245 11.7954 7.01203 13.1823C6.4889 14.5239 6.13305 16.0574 6.03201 18.302C5.9314 20.5521 5.90503 21.2714 5.90503 27.0002C5.90503 32.7291 5.93034 33.4458 6.03244 35.6957C6.13579 37.9413 6.49122 39.4742 7.01245 40.8154C7.55161 42.2029 8.27238 43.3797 9.44519 44.5521C10.6174 45.7256 11.7942 46.448 13.1807 46.9868C14.5229 47.5084 16.056 47.8638 18.3012 47.9668C20.5513 48.0691 21.2697 48.0942 26.9981 48.0942C32.7274 48.0942 33.4442 48.0691 35.694 47.9668C37.9397 47.8638 39.4743 47.5084 40.8165 46.9868C42.2034 46.448 43.3785 45.7256 44.5505 44.5521C45.7239 43.3797 46.4445 42.2029 46.9851 40.816C47.5036 39.4742 47.8597 37.9409 47.9651 35.6961C48.0662 33.4463 48.0925 32.7291 48.0925 27.0002C48.0925 21.2714 48.0662 20.5525 47.9651 18.3024C47.8597 16.0568 47.5036 14.5241 46.9851 13.183C46.4445 11.7954 45.7239 10.6186 44.5505 9.44599C43.3772 8.27276 42.2038 7.55198 40.8152 7.01388C39.4705 6.49202 37.9367 6.13638 35.6911 6.03366C33.441 5.93135 32.7247 5.90625 26.9941 5.90625H27.0007ZM25.1084 9.70756C25.6701 9.70671 26.2968 9.70756 27.0007 9.70756C32.6329 9.70756 33.3003 9.72781 35.5245 9.82884C37.5811 9.92292 38.6974 10.2665 39.4409 10.5553C40.4254 10.9375 41.1272 11.3946 41.865 12.1331C42.6033 12.8714 43.0602 13.5745 43.4435 14.5589C43.7322 15.3014 44.0763 16.4177 44.1699 18.4743C44.271 20.698 44.2929 21.3659 44.2929 26.9954C44.2929 32.6249 44.271 33.2929 44.1699 35.5164C44.0759 37.573 43.7322 38.6893 43.4435 39.432C43.0612 40.4165 42.6033 41.1174 41.865 41.8553C41.1267 42.5936 40.4258 43.0504 39.4409 43.4329C38.6982 43.7229 37.5811 44.0657 35.5245 44.1598C33.3007 44.2608 32.6329 44.2827 27.0007 44.2827C21.3682 44.2827 20.7006 44.2608 18.4771 44.1598C16.4205 44.0648 15.3042 43.7212 14.56 43.4325C13.5758 43.05 12.8725 42.5931 12.1342 41.8549C11.3959 41.1166 10.9391 40.4152 10.5558 39.4303C10.267 38.6876 9.92297 37.5713 9.82931 35.5147C9.72827 33.291 9.70802 32.6232 9.70802 26.9901C9.70802 21.357 9.72827 20.6928 9.82931 18.4691C9.92339 16.4124 10.267 15.2961 10.5558 14.5526C10.9382 13.5681 11.3959 12.8651 12.1344 12.1268C12.8729 11.3885 13.5758 10.9314 14.5602 10.5484C15.3038 10.2583 16.4205 9.91554 18.4771 9.82104C20.423 9.73308 21.1771 9.70671 25.1084 9.70228V9.70756ZM38.2605 13.21C36.8631 13.21 35.7293 14.3427 35.7293 15.7404C35.7293 17.1378 36.8631 18.2716 38.2605 18.2716C39.658 18.2716 40.7918 17.1378 40.7918 15.7404C40.7918 14.3429 39.658 13.2091 38.2605 13.2091V13.21ZM27.0007 16.1675C21.0185 16.1675 16.1682 21.0178 16.1682 27.0002C16.1682 32.9826 21.0185 37.8306 27.0007 37.8306C32.9831 37.8306 37.8317 32.9826 37.8317 27.0002C37.8317 21.018 32.9827 16.1675 27.0003 16.1675H27.0007ZM27.0007 19.9688C30.8838 19.9688 34.0321 23.1166 34.0321 27.0002C34.0321 30.8834 30.8838 34.0316 27.0007 34.0316C23.1175 34.0316 19.9695 30.8834 19.9695 27.0002C19.9695 23.1166 23.1173 19.9688 27.0007 19.9688Z" fill="white"/>
</g>
<defs>
<radialGradient id="paint0_radial_294_1832" cx="0" cy="0" r="1" gradientUnits="userSpaceOnUse" gradientTransform="translate(14.3425 58.1591) rotate(-90) scale(53.518 49.776)">
<stop stop-color="#FFDD55"/>
<stop offset="0.1" stop-color="#FFDD55"/>
<stop offset="0.5" stop-color="#FF543E"/>
<stop offset="1" stop-color="#C837AB"/>
</radialGradient>
<radialGradient id="paint1_radial_294_1832" cx="0" cy="0" r="1" gradientUnits="userSpaceOnUse" gradientTransform="translate(-9.04643 3.8899) rotate(78.681) scale(23.9228 98.6107)">
<stop stop-color="#3771C8"/>
<stop offset="0.128" stop-color="#3771C8"/>
<stop offset="1" stop-color="#6600FF" stop-opacity="0"/>
</radialGradient>
<clipPath id="clip0_294_1832">
<rect width="54" height="54" fill="white" transform="translate(-0.0012207)"/>
</clipPath>
</defs>
</svg>
