<svg width="99" height="53" viewBox="0 0 99 53" fill="none" xmlns="http://www.w3.org/2000/svg">
<g filter="url(#filter0_d_1263_1436)">
<rect x="5" y="3" width="89" height="43" rx="21.5" stroke="#C06020" stroke-width="2" shape-rendering="crispEdges"/>
<g clip-path="url(#clip0_1263_1436)">
<path fill-rule="evenodd" clip-rule="evenodd" d="M73.9432 32.4432C73.4275 32.9582 72.7286 33.2475 71.9998 33.2475C71.2711 33.2475 70.5721 32.9582 70.0565 32.4432L59.6835 22.0739C59.1678 21.558 58.8782 20.8584 58.8784 20.129C58.8786 19.3996 59.1685 18.7001 59.6844 18.1845C60.2003 17.6688 60.8999 17.3792 61.6293 17.3794C62.3587 17.3796 63.0582 17.6695 63.5738 18.1854L71.9998 26.6114L80.4258 18.1854C80.9442 17.6842 81.6388 17.4067 82.3598 17.4126C83.0809 17.4185 83.7707 17.7074 84.2808 18.217C84.791 18.7267 85.0805 19.4163 85.0871 20.1373C85.0937 20.8584 84.8168 21.5532 84.3162 22.072L73.945 32.445L73.9432 32.4432Z" fill="#C06020"/>
</g>
<rect x="5" y="2" width="45" height="45" rx="22.5" fill="#F7FAFC"/>
<mask id="mask0_1263_1436" style="mask-type:luminance" maskUnits="userSpaceOnUse" x="5" y="2" width="45" height="45">
<path d="M27.5 47C39.9264 47 50 36.9264 50 24.5C50 12.0736 39.9264 2 27.5 2C15.0736 2 5 12.0736 5 24.5C5 36.9264 15.0736 47 27.5 47Z" fill="white"/>
</mask>
<g mask="url(#mask0_1263_1436)">
<path d="M5 2H50V47H5V2Z" fill="#6DA544"/>
<path d="M27.5 10.8066L46.0889 24.5L27.5 38.1934L8.91113 24.5L27.5 10.8066Z" fill="#FFDA44"/>
<path d="M20.3104 21.4239C19.8731 22.4297 19.6573 23.5178 19.6776 24.6143L33.9159 28.9913C34.5431 28.0953 34.9744 27.077 35.1815 26.003C31.6131 20.2638 24.661 18.9454 20.3192 21.4327L20.3104 21.4239Z" fill="#EEEEEE"/>
<path d="M27.4736 16.6778C26.1882 16.681 24.9234 17.001 23.791 17.6094C22.2325 18.4503 21.0055 19.7951 20.3105 21.4239C22.9735 20.8584 25.7368 20.9831 28.338 21.7861C30.9392 22.589 33.292 24.0437 35.1729 26.0117C35.5223 24.2324 35.2426 22.387 34.3818 20.791C33.7105 19.5444 32.7133 18.5033 31.4966 17.7789C30.28 17.0545 28.8896 16.6739 27.4736 16.6778ZM23.6328 24.0166C22.2916 24.0121 20.9577 24.2137 19.6777 24.6143C19.6925 25.8692 20.0091 27.1022 20.6006 28.209C21.0873 29.1142 21.7477 29.9146 22.544 30.5644C23.3402 31.2143 24.2567 31.7009 25.2411 31.9963C26.2255 32.2918 27.2584 32.3904 28.2809 32.2865C29.3034 32.1826 30.2954 31.8781 31.2002 31.3907C32.2744 30.8122 33.1985 29.9905 33.8984 28.9912C32.6648 27.451 31.1032 26.2053 29.3274 25.3447C27.5515 24.4842 25.6061 24.0304 23.6328 24.0166Z" fill="#0052B4"/>
</g>
</g>
<defs>
<filter id="filter0_d_1263_1436" x="0" y="0" width="99" height="53" filterUnits="userSpaceOnUse" color-interpolation-filters="sRGB">
<feFlood flood-opacity="0" result="BackgroundImageFix"/>
<feColorMatrix in="SourceAlpha" type="matrix" values="0 0 0 0 0 0 0 0 0 0 0 0 0 0 0 0 0 0 127 0" result="hardAlpha"/>
<feOffset dy="2"/>
<feGaussianBlur stdDeviation="2"/>
<feComposite in2="hardAlpha" operator="out"/>
<feColorMatrix type="matrix" values="0 0 0 0 0 0 0 0 0 0 0 0 0 0 0 0 0 0 0.6 0"/>
<feBlend mode="normal" in2="BackgroundImageFix" result="effect1_dropShadow_1263_1436"/>
<feBlend mode="normal" in="SourceGraphic" in2="effect1_dropShadow_1263_1436" result="shape"/>
</filter>
<clipPath id="clip0_1263_1436">
<rect x="50" y="3" width="44" height="44" rx="22" fill="white"/>
</clipPath>
</defs>
</svg>
