<svg width="34" height="34" viewBox="0 0 34 34" fill="none" xmlns="http://www.w3.org/2000/svg">
<path d="M9.91683 14.1667V31.1667M21.2502 8.33004L19.8335 14.1667H28.0927C28.5325 14.1667 28.9663 14.2691 29.3598 14.4658C29.7532 14.6625 30.0954 14.9482 30.3593 15.3C30.6232 15.6519 30.8016 16.0604 30.8803 16.4932C30.959 16.926 30.9358 17.3711 30.8127 17.7934L27.5118 29.1267C27.3402 29.7152 26.9823 30.2322 26.4918 30.6C26.0014 30.9679 25.4049 31.1667 24.7918 31.1667H5.66683C4.91538 31.1667 4.19471 30.8682 3.66336 30.3368C3.13201 29.8055 2.8335 29.0848 2.8335 28.3334V17C2.8335 16.2486 3.13201 15.5279 3.66336 14.9966C4.19471 14.4652 4.91538 14.1667 5.66683 14.1667H9.57683C10.1039 14.1664 10.6205 14.0191 11.0685 13.7413C11.5165 13.4635 11.8781 13.0663 12.1127 12.5942L17.0002 2.83337C17.6682 2.84165 18.3258 3.00078 18.9237 3.29889C19.5216 3.59699 20.0445 4.02636 20.4532 4.55491C20.8618 5.08346 21.1458 5.69753 21.2838 6.35124C21.4218 7.00495 21.4103 7.6814 21.2502 8.33004Z" stroke="#1B202B" stroke-width="2" stroke-linecap="round" stroke-linejoin="round"/>
</svg>
