<svg width="30" height="30" viewBox="0 0 30 30" fill="none" xmlns="http://www.w3.org/2000/svg">
<path fill-rule="evenodd" clip-rule="evenodd" d="M3.39427 3.2981C2.32369 4.35824 1.47264 5.62046 0.890116 7.01206C0.307592 8.40366 0.00510251 9.89717 6.3999e-05 11.4066C-0.00497451 12.916 0.287538 14.4115 0.860758 15.807C1.43398 17.2025 2.27658 18.4704 3.34006 19.5377C4.40353 20.605 5.66687 21.4507 7.05733 22.026C8.44779 22.6013 9.93791 22.8948 11.4419 22.8898C12.9459 22.8847 14.434 22.5811 15.8206 21.9965C17.2071 21.4119 18.4648 20.5577 19.5211 19.4833C21.6361 17.3321 22.8174 14.4287 22.8073 11.4066C22.7972 8.3845 21.5965 5.48909 19.4673 3.35214C17.338 1.21519 14.4531 0.0101887 11.4419 6.43142e-05C8.43069 -0.0100601 5.53773 1.17552 3.39427 3.2981ZM16.5894 16.5409C15.9155 17.2172 15.1154 17.7537 14.2349 18.1198C13.3544 18.4858 12.4107 18.6742 11.4577 18.6742C10.5047 18.6742 9.56096 18.4858 8.68047 18.1198C7.79998 17.7537 6.99995 17.2172 6.32605 16.5409C5.65215 15.8646 5.11759 15.0617 4.75287 14.178C4.38816 13.2943 4.20045 12.3472 4.20045 11.3907C4.20045 10.4342 4.38816 9.4871 4.75287 8.60342C5.11759 7.71975 5.65215 6.91682 6.32605 6.24048C7.68705 4.87456 9.53296 4.10719 11.4577 4.10719C13.3824 4.10719 15.2284 4.87456 16.5894 6.24048C17.9504 7.60641 18.715 9.45899 18.715 11.3907C18.715 13.3224 17.9504 15.175 16.5894 16.5409Z" fill="#A89E85"/>
<path d="M17.3214 21.691C17.0325 21.4011 16.8033 21.0569 16.647 20.6781C16.4906 20.2992 16.4102 19.8932 16.4102 19.4832C16.4102 19.0732 16.4906 18.6671 16.647 18.2883C16.8033 17.9095 17.0325 17.5653 17.3214 17.2754C17.6103 16.9854 17.9532 16.7554 18.3307 16.5985C18.7081 16.4416 19.1127 16.3608 19.5212 16.3608C19.9298 16.3608 20.3344 16.4416 20.7118 16.5985C21.0893 16.7554 21.4322 16.9854 21.7211 17.2754L29.0506 24.6334C29.3476 24.9213 29.5845 25.2658 29.7475 25.6466C29.9105 26.0274 29.9963 26.437 29.9999 26.8514C30.0035 27.2659 29.9248 27.6769 29.7684 28.0605C29.6121 28.4441 29.3811 28.7926 29.0891 29.0857C28.7971 29.3787 28.4499 29.6105 28.0676 29.7674C27.6854 29.9244 27.2759 30.0034 26.8629 29.9998C26.45 29.9962 26.0419 29.9101 25.6624 29.7465C25.283 29.5829 24.9398 29.3451 24.6529 29.047L17.3214 21.691Z" fill="#A89E85"/>
</svg>
