<svg width="45" height="39" viewBox="0 0 45 39" fill="none" xmlns="http://www.w3.org/2000/svg">
<path d="M43.5187 5.90043C43.5182 6.55652 43.2572 7.18556 42.7931 7.64931C42.329 8.11305 41.6998 8.37356 41.0437 8.37355H3.9562C3.29979 8.37355 2.67026 8.1128 2.20611 7.64864C1.74196 7.18449 1.4812 6.55497 1.4812 5.89855V3.42918C1.4817 2.77309 1.74268 2.14405 2.20677 1.6803C2.67087 1.21656 3.30011 0.956054 3.9562 0.956055H41.0437C41.7001 0.956055 42.3296 1.21681 42.7938 1.68097C43.2579 2.14512 43.5187 2.77464 43.5187 3.43106V5.90043ZM43.5187 20.7373C43.5177 21.3931 43.2565 22.0216 42.7925 22.485C42.3284 22.9483 41.6995 23.2086 41.0437 23.2086H3.9562C3.30044 23.2086 2.67148 22.9483 2.20744 22.485C1.74339 22.0216 1.48219 21.3931 1.4812 20.7373V18.2661C1.4812 17.6096 1.74196 16.9801 2.20611 16.516C2.67026 16.0518 3.29979 15.7911 3.9562 15.7911H41.0437C41.7001 15.7911 42.3296 16.0518 42.7938 16.516C43.2579 16.9801 43.5187 17.6096 43.5187 18.2661V20.7373ZM43.5187 35.5723C43.5182 36.2284 43.2572 36.8574 42.7931 37.3212C42.329 37.7849 41.6998 38.0454 41.0437 38.0454H3.9562C3.29979 38.0454 2.67026 37.7847 2.20611 37.3205C1.74196 36.8564 1.4812 36.2268 1.4812 35.5704V33.0992C1.4817 32.4431 1.74268 31.814 2.20677 31.3503C2.67087 30.8866 3.30011 30.6261 3.9562 30.6261H41.0437C41.7001 30.6261 42.3296 30.8868 42.7938 31.351C43.2579 31.8151 43.5187 32.4446 43.5187 33.1011V35.5723Z" stroke="#191919" stroke-linecap="round" stroke-linejoin="round"/>
</svg>
