<svg width="68" height="68" viewBox="0 0 68 68" fill="none" xmlns="http://www.w3.org/2000/svg">
<g filter="url(#filter0_d_328_3456)">
<g clip-path="url(#clip0_328_3456)">
<rect x="3.99878" y="2" width="60" height="60" rx="30" fill="white"/>
<mask id="mask0_328_3456" style="mask-type:luminance" maskUnits="userSpaceOnUse" x="3" y="2" width="61" height="60">
<path d="M33.9988 62C50.5673 62 63.9988 48.5685 63.9988 32C63.9988 15.4315 50.5673 2 33.9988 2C17.4302 2 3.99878 15.4315 3.99878 32C3.99878 48.5685 17.4302 62 33.9988 62Z" fill="white"/>
</mask>
<g mask="url(#mask0_328_3456)">
<path d="M20.8738 2H47.0066L50.8738 32L47.0066 62H20.8738L17.1238 32L20.8738 2Z" fill="#EEEEEE"/>
<path d="M3.99878 2H20.8738V62H3.99878V2Z" fill="#496E2D"/>
<path d="M47.1238 2H63.9988V62H47.1238V2Z" fill="#D80027"/>
<path d="M33.9988 34.4609V35.6328H35.405L36.5769 33.0547L33.9988 34.4609Z" fill="#FFDA44"/>
<path d="M22.7488 30.3594C22.7488 33.3431 23.934 36.2045 26.0438 38.3143C28.1536 40.4241 31.0151 41.6094 33.9988 41.6094C36.9825 41.6094 39.8439 40.4241 41.9537 38.3143C44.0635 36.2045 45.2488 33.3431 45.2488 30.3594H43.9597C43.9597 33.0012 42.9103 35.5348 41.0422 37.4028C39.1742 39.2709 36.6406 40.3203 33.9988 40.3203C31.357 40.3203 28.8234 39.2709 26.9553 37.4028C25.0873 35.5348 24.0378 33.0012 24.0378 30.3594H22.7488ZM27.3191 32.3516L26.8503 32.5859C26.616 32.8203 26.616 33.2891 26.9675 33.5234C28.7253 35.1641 30.9519 36.1016 33.2957 36.3359V38.3281H34.7019V36.3359C37.0457 36.1016 39.2722 35.1641 41.03 33.5234C41.3816 33.2891 41.3816 32.8203 41.1472 32.5859C40.9128 32.3516 40.4441 32.3516 40.2097 32.5859C38.5241 34.1605 36.3054 35.0396 33.9988 35.0469C31.7722 35.0469 29.5457 34.1094 27.7878 32.5859L27.3191 32.3516Z" fill="#496E2D"/>
<path d="M33.9988 39.0312C32.3582 39.0312 30.7175 38.4453 29.3113 37.5078L30.0144 36.4531C32.3582 37.9766 35.6394 37.9766 37.9832 36.4531L38.8035 37.5078C37.3972 38.4453 35.7566 39.0312 33.9988 39.0312Z" fill="#338AF3"/>
<path d="M33.9988 22.3906C36.5769 23.6797 35.405 26.2578 35.2878 26.375L35.0535 25.9062C34.4675 24.6172 32.9441 23.7969 31.4207 23.7969V25.0859C32.1238 25.0859 32.7097 25.6719 32.7097 26.375C31.8894 27.1953 31.655 28.3672 32.241 29.4219L32.7097 30.3594L31.1863 33.0547L34.5847 32.2344L36.6941 34.3438V33.0547L37.9832 34.3438L40.6785 33.0547L36.5769 30.5938L35.991 28.1328L39.2722 30.0078C39.741 31.2969 40.6785 32.4688 41.9675 33.0547C43.0222 23.3281 37.0457 22.3906 34.8191 22.3906H33.9988Z" fill="#751A46"/>
<path d="M30.0144 33.7578C28.2566 33.7578 26.1472 32.3516 25.5613 29.0703L26.8503 28.8359C27.3191 31.5312 28.9597 32.4688 30.0144 32.4688C30.366 32.4688 30.6003 32.3516 30.7175 32.1172C30.7175 31.8828 30.7175 31.7656 30.0144 31.5312C29.6628 31.4141 29.1941 31.2969 28.8425 30.9453C27.6707 29.5391 29.3113 28.1328 30.1316 27.4297C30.2488 27.3125 30.366 27.1953 30.2488 27.0781C30.2488 27.0781 30.0144 26.8438 29.6628 26.8438C28.8425 26.8438 28.2566 26.375 28.0222 25.5547C27.7878 24.8516 28.2566 24.0312 28.9597 23.5625L29.5457 24.8516C29.3113 24.8516 29.3113 25.0859 29.3113 25.3203C29.3113 25.3203 29.4285 25.5547 29.6628 25.5547C30.4832 25.5547 31.3035 26.0234 31.5378 26.6094C31.655 26.9609 31.7722 27.6641 30.9519 28.3672C30.1316 29.1875 29.6628 29.7734 29.8972 30.125L30.4832 30.2422C31.0691 30.4766 32.1238 30.8281 32.0066 32.2344C31.8894 33.1719 31.0691 33.7578 30.0144 33.7578Z" fill="#6DA544"/>
<path d="M31.4207 23.7969L30.0144 25.0859V26.375L32.1238 25.3203C32.4753 25.2031 32.4753 24.7344 32.241 24.5L31.4207 23.7969Z" fill="#FFDA44"/>
<path d="M24.155 35.1641C24.6728 35.1641 25.0925 34.7443 25.0925 34.2266C25.0925 33.7088 24.6728 33.2891 24.155 33.2891C23.6373 33.2891 23.2175 33.7088 23.2175 34.2266C23.2175 34.7443 23.6373 35.1641 24.155 35.1641Z" fill="#FFDA44"/>
<path d="M26.1472 38.3281C26.665 38.3281 27.0847 37.9084 27.0847 37.3906C27.0847 36.8729 26.665 36.4531 26.1472 36.4531C25.6294 36.4531 25.2097 36.8729 25.2097 37.3906C25.2097 37.9084 25.6294 38.3281 26.1472 38.3281Z" fill="#FFDA44"/>
<path d="M29.3113 40.7891C29.829 40.7891 30.2488 40.3693 30.2488 39.8516C30.2488 39.3338 29.829 38.9141 29.3113 38.9141C28.7935 38.9141 28.3738 39.3338 28.3738 39.8516C28.3738 40.3693 28.7935 40.7891 29.3113 40.7891Z" fill="#FFDA44"/>
<path d="M38.8035 40.7891C39.3212 40.7891 39.741 40.3693 39.741 39.8516C39.741 39.3338 39.3212 38.9141 38.8035 38.9141C38.2857 38.9141 37.866 39.3338 37.866 39.8516C37.866 40.3693 38.2857 40.7891 38.8035 40.7891Z" fill="#FFDA44"/>
<path d="M41.9675 38.3281C42.4853 38.3281 42.905 37.9084 42.905 37.3906C42.905 36.8729 42.4853 36.4531 41.9675 36.4531C41.4498 36.4531 41.03 36.8729 41.03 37.3906C41.03 37.9084 41.4498 38.3281 41.9675 38.3281Z" fill="#FFDA44"/>
<path d="M43.9597 35.1641C44.4775 35.1641 44.8972 34.7443 44.8972 34.2266C44.8972 33.7088 44.4775 33.2891 43.9597 33.2891C43.4419 33.2891 43.0222 33.7088 43.0222 34.2266C43.0222 34.7443 43.4419 35.1641 43.9597 35.1641Z" fill="#FFDA44"/>
<path d="M34.7019 37.0391H33.2957C32.5837 37.0391 32.0066 37.6162 32.0066 38.3281C32.0066 39.0401 32.5837 39.6172 33.2957 39.6172H34.7019C35.4138 39.6172 35.991 39.0401 35.991 38.3281C35.991 37.6162 35.4138 37.0391 34.7019 37.0391Z" fill="#FF9811"/>
</g>
</g>
</g>
<defs>
<filter id="filter0_d_328_3456" x="-0.0012207" y="0" width="68" height="68" filterUnits="userSpaceOnUse" color-interpolation-filters="sRGB">
<feFlood flood-opacity="0" result="BackgroundImageFix"/>
<feColorMatrix in="SourceAlpha" type="matrix" values="0 0 0 0 0 0 0 0 0 0 0 0 0 0 0 0 0 0 127 0" result="hardAlpha"/>
<feOffset dy="2"/>
<feGaussianBlur stdDeviation="2"/>
<feComposite in2="hardAlpha" operator="out"/>
<feColorMatrix type="matrix" values="0 0 0 0 0 0 0 0 0 0 0 0 0 0 0 0 0 0 0.6 0"/>
<feBlend mode="normal" in2="BackgroundImageFix" result="effect1_dropShadow_328_3456"/>
<feBlend mode="normal" in="SourceGraphic" in2="effect1_dropShadow_328_3456" result="shape"/>
</filter>
<clipPath id="clip0_328_3456">
<rect x="3.99878" y="2" width="60" height="60" rx="30" fill="white"/>
</clipPath>
</defs>
</svg>
