<svg width="34" height="34" viewBox="0 0 34 34" fill="none" xmlns="http://www.w3.org/2000/svg">
<path d="M12.1692 19.1392L21.845 24.7775M21.8308 9.22254L12.1692 14.8609M29.75 7.08337C29.75 9.43058 27.8472 11.3334 25.5 11.3334C23.1528 11.3334 21.25 9.43058 21.25 7.08337C21.25 4.73616 23.1528 2.83337 25.5 2.83337C27.8472 2.83337 29.75 4.73616 29.75 7.08337ZM12.75 17C12.75 19.3473 10.8472 21.25 8.5 21.25C6.15279 21.25 4.25 19.3473 4.25 17C4.25 14.6528 6.15279 12.75 8.5 12.75C10.8472 12.75 12.75 14.6528 12.75 17ZM29.75 26.9167C29.75 29.2639 27.8472 31.1667 25.5 31.1667C23.1528 31.1667 21.25 29.2639 21.25 26.9167C21.25 24.5695 23.1528 22.6667 25.5 22.6667C27.8472 22.6667 29.75 24.5695 29.75 26.9167Z" stroke="#1B202B" stroke-width="2" stroke-linecap="round" stroke-linejoin="round"/>
</svg>
