<svg width="34" height="34" viewBox="0 0 34 34" fill="none" xmlns="http://www.w3.org/2000/svg">
<path d="M8.5 21.25V18.4167M17 21.25V12.75M17 12.75C19.3472 12.75 21.25 10.8472 21.25 8.5C21.25 6.15279 19.3472 4.25 17 4.25C14.6528 4.25 12.75 6.15279 12.75 8.5C12.75 10.8472 14.6528 12.75 17 12.75ZM29.75 24.0833C29.75 23.3319 29.4515 22.6112 28.9201 22.0799C28.3888 21.5485 27.6681 21.25 26.9167 21.25H7.08333C6.33189 21.25 5.61122 21.5485 5.07986 22.0799C4.54851 22.6112 4.25 23.3319 4.25 24.0833V26.9167C4.25 27.6681 4.54851 28.3888 5.07986 28.9201C5.61122 29.4515 6.33189 29.75 7.08333 29.75H26.9167C27.6681 29.75 28.3888 29.4515 28.9201 28.9201C29.4515 28.3888 29.75 27.6681 29.75 26.9167V24.0833Z" stroke="#1B202B" stroke-width="2" stroke-linecap="round" stroke-linejoin="round"/>
</svg>
