<svg width="34" height="34" viewBox="0 0 34 34" fill="none" xmlns="http://www.w3.org/2000/svg">
<g clip-path="url(#clip0_316_5885)">
<g filter="url(#filter0_d_316_5885)">
<path d="M16.3259 3.25126C16.388 3.12583 16.4839 3.02025 16.6028 2.94643C16.7217 2.87261 16.8589 2.8335 16.9988 2.8335C17.1388 2.8335 17.2759 2.87261 17.3948 2.94643C17.5137 3.02025 17.6096 3.12583 17.6717 3.25126L20.9442 9.87985C21.1598 10.3161 21.478 10.6936 21.8716 10.9798C22.2652 11.2661 22.7223 11.4525 23.2038 11.5232L30.5223 12.5942C30.661 12.6143 30.7913 12.6728 30.8984 12.763C31.0056 12.8533 31.0853 12.9718 31.1287 13.105C31.172 13.2383 31.1772 13.381 31.1436 13.517C31.1101 13.6531 31.0391 13.777 30.9388 13.8748L25.6461 19.0287C25.2971 19.3688 25.0359 19.7887 24.8852 20.2522C24.7344 20.7156 24.6985 21.2088 24.7806 21.6892L26.0301 28.9708C26.0545 29.1095 26.0396 29.2521 25.9868 29.3826C25.9341 29.5132 25.8458 29.6262 25.7319 29.7089C25.618 29.7916 25.4832 29.8407 25.3428 29.8504C25.2024 29.8602 25.062 29.8303 24.9378 29.7642L18.3956 26.3245C17.9646 26.0982 17.485 25.9799 16.9981 25.9799C16.5112 25.9799 16.0316 26.0982 15.6006 26.3245L9.05981 29.7642C8.93561 29.8299 8.79545 29.8595 8.65528 29.8495C8.5151 29.8396 8.38054 29.7905 8.26689 29.7078C8.15324 29.6252 8.06507 29.5123 8.0124 29.382C7.95974 29.2517 7.94469 29.1093 7.96897 28.9708L9.21706 21.6906C9.2995 21.21 9.26378 20.7165 9.11298 20.2527C8.96219 19.789 8.70083 19.3689 8.35147 19.0287L3.05881 13.8763C2.95765 13.7786 2.88596 13.6544 2.85192 13.518C2.81788 13.3815 2.82284 13.2382 2.86625 13.1044C2.90966 12.9707 2.98977 12.8518 3.09745 12.7613C3.20513 12.6709 3.33605 12.6125 3.47531 12.5928L10.7924 11.5232C11.2744 11.4531 11.7322 11.2668 12.1263 10.9806C12.5204 10.6943 12.8391 10.3166 13.0548 9.87985L16.3259 3.25126Z" stroke="#FFB240" stroke-width="2" stroke-linecap="round" stroke-linejoin="round" shape-rendering="crispEdges"/>
</g>
<path d="M9.65253 27.7748C9.69502 27.5823 9.86628 27.283 10.0382 26.9926C10.2249 26.6771 10.4457 26.4241 10.6711 26.1556C11.1996 25.5258 12.0334 24.5995 12.3659 24.2461C12.7215 23.8681 13.0635 23.6982 13.5351 23.4728C13.8438 23.3253 14.0936 23.1831 14.6717 22.8831C15.3037 22.5551 15.7456 22.4105 16.0254 22.3027C16.3169 22.1903 16.8813 22.0886 17.398 22.0236C17.9416 21.9552 18.4059 21.8736 19.905 21.8411C20.2755 21.833 20.4037 21.8086 20.5215 21.8726C20.7987 22.0234 20.8331 22.4298 20.8656 22.9549C20.8893 23.3379 21.0262 23.7175 21.1656 23.9753C21.3005 24.2248 21.455 24.5751 21.6697 24.9301C21.8486 25.2259 22.0769 25.6271 22.3348 25.9709C22.6771 26.4273 23.0427 27.0435 23.2899 27.3232C23.4992 27.56 23.6228 27.7529 23.6662 27.7642C23.7023 27.7736 23.5397 27.6268 23.5168 27.5614C23.494 27.4961 23.5577 27.4748 23.6224 27.4851C23.7596 27.5069 23.9015 27.6029 23.9772 27.6245C24.4364 27.7554 23.0234 27.0035 22.6805 26.7029C22.4114 26.4668 21.8671 26.1254 21.4679 25.8015C21.0359 25.4511 20.7494 25.2652 20.459 25.018C20.1839 24.7838 19.848 24.7064 19.5683 24.6204C19.3085 24.5406 19.0111 24.4489 17.0214 24.4376C16.3876 24.434 16.092 24.5982 15.706 24.6948C15.2992 24.7966 15.0619 24.9845 14.7506 25.1239C14.2835 25.3331 13.6455 25.7352 13.377 25.8859C13.0995 26.0416 12.8085 26.079 12.5507 26.165C12.2222 26.2745 11.8428 26.4653 11.585 26.6153C11.4515 26.6929 11.3059 26.7872 11.1983 26.8197C10.9688 26.8891 11.7527 26.1048 13.2199 24.7965C13.9375 24.1567 14.7979 23.8501 15.6909 23.4944C16.1213 23.3229 16.7307 23.1831 17.3333 23.054C18.2491 22.8578 19.2441 22.9668 19.4914 23.1493C19.7361 23.33 19.9099 23.6312 20.0818 23.9216C20.2834 24.2623 20.6387 24.7669 20.8115 25.2195C20.9867 25.6782 21.0906 25.9709 21.23 26.2287C21.2644 26.2924 21.2838 26.3571 21.2628 26.4006C21.2419 26.4441 21.1782 26.4653 21.1028 26.455C20.7728 26.4099 20.5344 26.2091 20.1162 25.8234C19.8405 25.5692 19.6324 25.3933 19.5677 25.3074C19.4493 25.1502 20.0592 25.4777 20.6596 25.9274C21.0262 26.202 21.3044 26.4859 21.6688 26.7969C22.2529 27.2953 22.5276 27.5804 22.732 27.8382C22.9356 28.095 23.3633 28.2242 23.8471 28.5143C24.1483 28.6948 24.4591 28.8899 24.7169 29.0512C24.7783 29.0896 24.8454 29.105 24.857 29.0734C24.9551 28.8064 24.7179 28.3362 24.5685 27.7562C24.2888 26.6699 24.2466 26.2322 24.1816 25.8447C24.122 25.4894 23.7341 24.2235 23.5378 23.3447C23.4598 22.9958 23.3234 22.7543 23.2909 22.3256C23.2277 21.4931 23.2796 20.2434 23.3762 19.9215C23.4026 19.8333 23.4509 19.7503 23.494 19.6746C23.5371 19.599 23.5796 19.5352 23.6015 19.7042C23.7834 21.1085 23.3015 22.1929 23.2268 22.537C23.1179 23.0389 23.044 23.4162 22.9799 23.7178C22.9657 23.7845 22.9371 23.8462 22.8943 23.8685C22.7997 23.9175 22.5946 23.5288 22.3589 22.8335C22.0943 22.0526 22.0782 21.0843 22.1101 20.2692C22.1352 19.6274 22.8057 19.2996 23.267 19.0096C24.1324 18.4655 24.5016 18.1832 24.8347 17.936C25.1058 17.7349 25.3604 17.56 25.6823 17.3031C25.9717 17.0722 26.1974 16.9162 26.4552 16.7127C26.7005 16.5192 26.9056 16.2943 27.1528 16.0583C27.3907 15.8313 27.5713 15.5436 27.7644 15.2751C28.0089 14.9353 28.3001 14.6641 28.4517 14.3737C28.6108 14.069 28.602 13.8046 28.6767 13.708C28.8541 13.4787 29.1808 13.7608 29.2352 13.7824C29.7237 13.9761 28.1108 13.6971 27.2108 13.6646C26.7124 13.6466 26.3287 13.5258 25.9534 13.418C25.5827 13.3115 25.1917 13.2039 24.7517 13.1495C24.4333 13.1102 24.0972 12.9889 23.7641 12.9458C23.4588 12.9062 23.2384 12.667 22.8315 12.3573C21.9785 11.7081 21.5027 11.1038 21.0494 10.7146C20.6681 10.3872 20.2768 9.92174 20.019 9.56667C19.8166 9.28798 19.633 8.9985 19.3964 8.66532C19.2238 8.42221 19.0961 8.13965 18.9242 7.8818C18.7585 7.63332 18.6454 7.36706 18.5376 7.10921C18.4298 6.85159 18.2591 6.59448 18.1513 6.33663C18.0291 6.04445 17.744 5.75752 17.5293 5.5531C17.4793 5.50544 17.4646 5.43561 17.4218 5.44526C16.8876 5.56577 16.7358 6.6344 16.5314 7.04193C16.216 7.67079 16.177 8.00831 16.0376 8.26616C15.9714 8.38864 15.9195 8.52401 15.8338 8.57809C15.4484 8.82154 15.8744 7.07091 16.1648 6.47698C16.4625 5.86795 16.5839 5.56437 16.6698 5.2959C16.7765 4.96286 16.8633 4.70552 16.8421 4.67236C16.2063 3.68013 15.7263 7.23572 15.5763 7.5042C15.3981 7.82315 15.2125 8.34953 14.9756 8.96245C14.7741 9.48384 14.5674 9.74662 14.4068 10.0151C14.1413 10.4589 13.688 10.8411 13.4414 11.0561C13.126 11.3312 12.8304 11.5068 12.5294 11.6787C12.1542 11.893 11.7153 12.1287 11.3918 12.2691C11.1228 12.3858 10.7921 12.4944 10.4905 12.5804C10.2291 12.6549 9.93323 12.7945 9.63225 12.9023C9.1643 13.07 8.62371 13.0095 6.9765 13.042C6.42902 13.0528 6.1347 13.2026 5.85496 13.2992C5.71452 13.3477 5.57587 13.4177 5.46835 13.4602C5.17236 13.5771 5.74584 14.0602 5.9818 14.4784C6.18262 14.8343 6.43215 15.1547 6.62594 15.466C6.78879 15.7276 6.9472 16.0342 7.09818 16.3139C7.27176 16.6355 7.54853 16.893 7.79511 17.1509C8.0635 17.4315 8.29922 17.5806 8.50396 17.6775C8.51778 17.684 8.47305 17.6038 8.25995 16.9548C8.04685 16.3058 7.66442 15.0736 7.44616 14.3963C7.14867 13.4731 6.99227 13.1833 6.74569 12.9248C6.51809 12.6862 6.00723 12.7739 5.58714 12.8379C5.14744 12.905 4.67581 12.9451 4.32074 13.0845C4.05478 13.1889 3.8588 13.267 3.77285 13.3633C3.56759 13.5931 4.34875 14.1658 5.42071 14.9921C6.04544 15.4737 6.56091 15.7985 6.90374 16.0879C7.3122 16.4327 7.6979 16.9136 8.05103 17.3949C8.83232 18.4596 9.20057 19.1026 9.39436 19.4042C9.56579 19.6711 9.67313 20.0258 9.94128 20.6903C10.1085 21.1046 10.1457 21.4641 10.2851 21.8929C10.402 22.2527 10.4676 22.6011 10.5001 23.0946C10.5116 23.2694 10.5539 23.5449 10.522 23.8881C10.5037 24.0851 10.297 24.1263 10.211 24.1904C10.0151 24.3364 10.4882 24.5982 10.6926 24.8017C10.8004 24.909 10.9183 25.0058 11.0145 25.113C11.3268 25.4608 12.2896 25.0721 12.645 24.9105C13.088 24.7091 13.321 24.5351 13.6323 24.2457C13.8896 24.0065 13.9017 23.4651 13.9445 23.0119C13.9527 22.926 13.9236 22.8406 13.8808 22.7756C13.838 22.7106 13.7743 22.6681 13.6777 22.6568C12.999 22.5776 12.2935 23.3312 12.0356 23.5356C11.7676 23.748 11.2453 24.3793 10.6414 24.8551C10.3388 25.0935 10.0826 25.1345 9.99633 25.2311C9.81135 25.4382 10.7869 25.0927 12.7673 24.3977C13.5668 24.1171 13.8786 23.7844 14.1795 23.4307C14.5797 22.9604 14.6305 22.5187 14.6637 21.7046C14.6735 21.4648 14.5249 21.316 14.3643 21.166C14.1309 20.948 13.5837 20.8229 13.1733 20.6397C12.7183 20.4367 12.2291 20.2215 11.9178 19.9428C11.5622 19.6243 11.284 19.0846 11.1127 18.7842C10.8458 18.3162 10.5565 17.672 10.297 17.1637C10.1398 16.8557 9.97573 16.0419 9.89943 15.4257C9.85276 15.0488 9.76069 14.4092 9.7594 13.549C9.7592 13.411 9.88688 13.4177 9.97315 13.5027C10.192 13.7182 10.2745 14.2089 10.3388 15.0205C10.5141 17.2299 10.2963 17.6006 10.2645 17.869C10.2546 17.952 10.1689 17.9038 10.1148 17.8288C9.68706 17.2356 9.31002 16.1462 9.14874 15.6833C9.02573 15.3302 8.90184 15.0285 8.93306 14.5994C8.93921 14.5149 9.09241 14.5547 9.179 14.6081C9.35291 14.7154 9.41625 14.9191 9.70339 15.8233C9.96408 16.6442 10.4792 18.1935 10.7844 19.2156C11.3999 21.2772 11.3046 21.8285 11.3799 22.1723C11.4166 22.34 11.4121 22.4949 11.4655 22.6233C11.4933 22.69 11.5402 22.7518 11.6789 22.7421C12.6218 22.6765 13.1498 21.853 13.3645 21.5951C13.6162 21.2929 13.858 20.6529 13.8592 19.4747C13.8605 18.3045 13.473 17.9476 13.2054 17.2725C12.9035 16.5105 12.4647 15.6723 12.3569 15.3504C12.2378 14.9948 12.1853 14.5572 12.0994 14.1487C12.0317 13.8271 11.9922 13.4833 11.8422 13.3105C11.566 12.9922 11.4565 14.2521 11.284 15.0549C11.0803 16.0025 11.3471 16.9767 11.5183 17.5555C11.7126 18.212 12.1402 18.5026 12.42 18.6323C12.7176 18.7703 13.1279 18.782 13.3963 18.8898C13.7531 19.0331 14.0936 19.3395 14.3621 19.6614C14.7479 20.1241 15.0812 20.7765 15.4775 21.4628C15.7286 21.8977 15.9401 22.1086 16.1957 22.1627C17.29 22.3942 17.6346 21.7667 18.1381 21.2426C18.7287 20.6278 18.6016 19.5198 18.4951 18.6355C18.386 17.7305 17.8322 17.1776 16.8713 16.0982C16.2617 15.4134 15.2731 14.5727 14.7381 14.0708C13.9154 13.2992 13.5605 12.7983 13.3229 12.3995C13.1597 12.1254 13.0223 11.9375 12.9685 11.8941C12.5859 11.5848 13.0429 13.2001 13.1823 13.8017C13.251 14.0983 13.3004 14.4034 13.7047 15.3936C14.051 16.2415 14.7464 17.7647 15.1073 18.5953C15.5681 19.6559 15.725 19.9614 15.8435 20.2412C15.9579 20.5112 16.1113 20.7984 16.166 20.9507C16.2606 21.2136 15.8345 19.9048 15.5245 18.6316C15.3583 17.9492 15.1083 17.2098 14.9347 16.5717C14.4542 14.8048 14.3743 14.4066 14.3418 14.0734C14.3344 13.9974 14.3099 13.934 14.3415 13.8906C14.373 13.8471 14.458 13.8259 14.5868 13.8999C14.9211 14.0922 15.1668 14.4677 15.4978 14.9905C15.7311 15.3592 16.0624 15.9595 16.4606 16.8821C16.8588 17.8047 17.305 19.0369 17.5985 19.7992C18.1267 21.1705 18.3009 21.336 18.2906 21.4113C18.2861 21.4446 18.1741 21.3804 18.0985 21.316C18.0228 21.2517 17.9591 21.1667 17.5757 20.2093C17.1923 19.252 16.4912 17.4248 16.1194 16.441C15.7168 15.3759 15.6619 15.221 15.6294 15.1032C15.6148 15.0502 15.7031 15.0066 15.8103 15.006C16.0696 15.0044 16.3045 15.1553 16.4757 15.3156C16.562 15.4122 16.647 15.5397 16.7864 15.7966C16.9258 16.0535 17.117 16.4359 17.314 16.8299" stroke="#FFB240" stroke-width="2" stroke-linecap="round"/>
<path d="M19.1169 20.6928C19.2019 20.8627 19.2868 21.0327 19.2775 21.0246C19.2682 21.0166 19.1619 20.8254 19.0329 20.132C18.9038 19.4386 18.755 18.2488 18.6572 17.5828C18.5075 16.5639 18.3874 16.2511 18.3977 16.1651C18.4023 16.1268 18.5143 16.1641 18.5899 16.1963C18.7354 16.2582 19.1137 16.7185 19.7027 17.5107C20.2349 18.2263 20.4682 18.7813 20.6817 19.2191C21.0368 19.9475 21.3483 20.4346 21.3702 20.4887C21.4988 20.8062 21.0277 19.8365 20.5677 18.339C20.2899 17.4344 19.997 16.938 19.9329 16.8624C19.6968 16.5835 19.5688 17.4724 19.3432 17.7408C19.1875 17.9261 18.9888 18.0312 18.8922 18.1381C18.6905 18.3613 19.0731 18.7381 19.2022 19.0713C19.3265 19.3921 19.5669 19.512 19.706 19.5445C20.2362 19.6685 20.4045 18.527 20.4898 18.2153C20.6117 17.7701 21.1088 17.2844 21.6583 16.863C21.7997 16.7546 21.9703 16.7655 22.1203 16.808C22.504 16.9166 22.7841 18.1947 22.8835 19.7434C22.9397 20.6175 22.3373 21.1833 22.0794 21.5716C22.0287 21.648 21.951 21.6791 21.865 21.6797C21.1246 21.6853 20.4702 20.4584 20.287 20.1252C20.0523 19.6983 20.3388 18.9132 20.4792 18.6972C20.4967 18.6702 20.5539 18.76 20.6076 18.761C20.9375 18.7669 21.2183 18.2694 23.0049 16.985C23.6225 16.541 23.9442 16.3161 24.2127 16.1223C24.5337 15.8906 24.7818 15.7141 24.9315 15.735C25.0263 15.7483 25.1237 15.8834 25.1784 15.9913C25.2332 16.0991 25.2332 16.2053 25.2119 16.2282C25.03 16.4238 25.04 15.4379 25.0719 14.966C25.0838 14.789 25.1675 14.749 25.3172 14.7271C25.9982 14.6275 26.1982 14.8553 26.2629 14.8768C26.4892 14.9523 25.6645 14.5134 25.3951 14.2449C25.0165 13.8677 24.5906 13.697 24.2687 13.6645C23.9225 13.6295 23.5824 13.5683 23.143 13.5039C22.2914 13.3791 22.0153 13.1395 21.7469 12.9782C21.4612 12.8066 21.0084 12.4763 20.6202 11.96C20.3652 11.6209 20.1483 11.2518 20.0185 10.9721C19.9011 10.7187 19.7826 10.4148 19.6432 10.1351C19.5167 9.88124 19.3113 9.62036 19.1175 9.36251C18.9313 9.11478 18.7744 8.84778 18.549 8.63274C18.2433 8.34102 18.0018 7.94643 17.798 7.75232C17.6591 7.62003 17.2099 8.30568 16.7167 9.03449C15.979 10.1248 15.8334 11.6123 15.6943 11.8187C15.5404 12.047 16.154 11.2518 16.4653 10.908C16.9684 10.3523 17.6354 9.70535 17.7639 9.61972C17.8286 9.57658 17.8923 9.53409 17.957 9.61843C18.3536 10.1354 18.0662 10.711 17.9049 11.0879C17.8461 11.2253 17.7655 11.3567 17.6052 11.4852C17.0895 11.8983 16.2854 11.6368 16.0275 11.5296C15.69 11.3893 15.5334 11.0368 15.4046 10.7152C15.3562 10.5942 15.3827 10.3955 15.3509 10.3926C15.1405 10.3735 14.9984 11.0966 14.613 11.7707C13.8918 13.0324 13.8163 13.5238 13.7841 13.7273C13.7688 13.8239 13.7732 13.9095 13.9113 13.9533C14.3084 14.0792 14.8438 13.9333 15.3254 13.8155C16.6055 13.5023 17.6998 13.0532 17.807 13.0526C18.4324 13.0488 17.8724 14.4039 17.7871 14.3946C16.9929 14.3077 17.4217 13.397 17.4108 13.3745C17.1618 12.8619 17.6567 14.2314 17.7752 14.4049C18.2379 15.0827 18.4937 12.2639 18.6227 11.9046C18.7688 11.4983 18.9224 13.4086 18.9562 14.1364C18.9749 14.538 18.795 13.2264 18.7843 12.9048C18.7778 12.7082 19.0705 13.4736 19.6918 14.9097C20.1235 15.9075 20.4682 16.3141 20.5967 16.432C20.6588 16.489 20.7251 16.5285 20.8961 16.3698C21.3986 15.9033 21.7977 15.1166 22.0871 14.4738C22.2953 14.0114 22.3785 13.5914 22.4641 13.3226C22.5624 13.0139 22.6579 15.2705 22.5619 16.1319C22.51 16.5981 21.6947 14.5417 21.3284 13.5599C21.0471 12.806 20.7702 12.1956 20.5236 12.0231C20.2677 11.8441 19.9551 12.1725 19.7613 12.3972C19.7046 12.4629 19.6757 12.5575 19.6644 12.6544C19.5908 13.2875 20.6376 14.0164 21.3886 14.3714C21.8377 14.5108 22.5459 14.6615 23.3815 14.7902C23.7498 14.834 24.0047 14.834 24.2674 14.8984" stroke="#FFB240" stroke-width="2" stroke-linecap="round"/>
</g>
<defs>
<filter id="filter0_d_316_5885" x="-2.17041" y="1.8335" width="38.3359" height="37.0188" filterUnits="userSpaceOnUse" color-interpolation-filters="sRGB">
<feFlood flood-opacity="0" result="BackgroundImageFix"/>
<feColorMatrix in="SourceAlpha" type="matrix" values="0 0 0 0 0 0 0 0 0 0 0 0 0 0 0 0 0 0 127 0" result="hardAlpha"/>
<feOffset dy="4"/>
<feGaussianBlur stdDeviation="2"/>
<feComposite in2="hardAlpha" operator="out"/>
<feColorMatrix type="matrix" values="0 0 0 0 0 0 0 0 0 0 0 0 0 0 0 0 0 0 0.25 0"/>
<feBlend mode="normal" in2="BackgroundImageFix" result="effect1_dropShadow_316_5885"/>
<feBlend mode="normal" in="SourceGraphic" in2="effect1_dropShadow_316_5885" result="shape"/>
</filter>
<clipPath id="clip0_316_5885">
<rect width="34" height="34" fill="white" transform="translate(-0.0012207)"/>
</clipPath>
</defs>
</svg>
