<svg width="54" height="54" viewBox="0 0 54 54" fill="none" xmlns="http://www.w3.org/2000/svg">
<path d="M41.3425 0H12.655C5.66518 0 -0.0012207 5.6664 -0.0012207 12.6562V41.3438C-0.0012207 48.3336 5.66518 54 12.655 54H41.3425C48.3324 54 53.9988 48.3336 53.9988 41.3438V12.6562C53.9988 5.6664 48.3324 0 41.3425 0Z" fill="white"/>
<path d="M41.3425 0H12.655C5.66518 0 -0.0012207 5.6664 -0.0012207 12.6562V41.3438C-0.0012207 48.3336 5.66518 54 12.655 54H41.3425C48.3324 54 53.9988 48.3336 53.9988 41.3438V12.6562C53.9988 5.6664 48.3324 0 41.3425 0Z" fill="#1D9BF0"/>
<path d="M42.096 19.282C42.1192 19.6168 42.1192 19.9515 42.1192 20.2894C42.1192 30.5826 34.2833 42.4537 19.9549 42.4537V42.4474C15.7221 42.4535 11.5769 41.2412 8.0144 38.9553C8.6302 39.0291 9.24825 39.0666 9.86855 39.0677C13.3769 39.0706 16.7843 37.8939 19.5432 35.7267C17.9177 35.6959 16.3425 35.1579 15.0376 34.188C13.7328 33.2182 12.7637 31.8648 12.2656 30.3172C13.4327 30.5423 14.6359 30.4964 15.7824 30.183C12.1484 29.4488 9.53379 26.2558 9.53379 22.5475V22.4488C10.6171 23.0523 11.8296 23.3866 13.0691 23.4238C9.64643 21.1361 8.59132 16.5826 10.6581 13.0224C12.6136 15.4291 15.0536 17.3975 17.8196 18.7996C20.5856 20.2017 23.6156 21.0062 26.7127 21.1608C26.4039 19.8316 26.4496 18.4445 26.845 17.1385C27.2405 15.8324 27.9719 14.653 28.9662 13.7183C32.1037 10.769 37.0381 10.9202 39.9875 14.056C41.7319 13.7116 43.4048 13.0721 44.9342 12.165C44.3526 13.9686 43.1357 15.4996 41.5098 16.4732C43.054 16.2911 44.562 15.8777 45.9832 15.247C44.9378 16.8126 43.6215 18.1789 42.096 19.282Z" fill="white"/>
</svg>
