<svg width="30" height="30" viewBox="0 0 30 30" fill="none" xmlns="http://www.w3.org/2000/svg">
<path d="M26.5357 24.5675C28.0756 22.7164 29.1465 20.5219 29.658 18.1698C30.1695 15.8177 30.1065 13.3771 29.4743 11.0545C28.8421 8.73182 27.6593 6.59548 26.0261 4.82616C24.3928 3.05685 22.3571 1.7066 20.0911 0.889657C17.8251 0.072711 15.3955 -0.186904 13.0078 0.132774C10.6202 0.452451 8.3447 1.34202 6.37389 2.72622C4.40309 4.11042 2.79494 5.94854 1.68548 8.08507C0.576023 10.2216 -0.00210428 12.5937 5.75516e-06 15.0007C0.000907098 18.4998 1.23498 21.8868 3.48571 24.5675L3.46427 24.5857C3.53932 24.6757 3.6251 24.7528 3.70229 24.8417C3.79879 24.9521 3.90279 25.056 4.00251 25.1631C4.30129 25.4895 4.61223 25.8002 4.93532 26.0952C5.03539 26.1837 5.13546 26.2701 5.23553 26.3544C5.57863 26.6508 5.93246 26.9301 6.297 27.1922C6.34418 27.2243 6.38707 27.2661 6.43424 27.2993V27.2864C8.94538 29.0523 11.9411 30 15.0118 30C18.0825 30 21.0782 29.0523 23.5894 27.2864V27.2993C23.6365 27.2661 23.6783 27.2243 23.7266 27.1922C24.0911 26.9293 24.445 26.6501 24.7881 26.3544C24.8881 26.2694 24.9882 26.183 25.0883 26.0952C25.4107 25.8002 25.7216 25.4895 26.0211 25.1631C26.1208 25.056 26.2237 24.9521 26.3213 24.8417C26.3974 24.7528 26.4843 24.6757 26.5593 24.5846L26.5357 24.5675ZM15.0107 6.43026C15.965 6.43026 16.8978 6.71299 17.6913 7.24272C18.4847 7.77244 19.1031 8.52536 19.4683 9.40626C19.8335 10.2872 19.9291 11.2565 19.7429 12.1916C19.5567 13.1268 19.0972 13.9858 18.4224 14.66C17.7477 15.3342 16.8879 15.7934 15.952 15.9794C15.0161 16.1654 14.046 16.0699 13.1643 15.705C12.2827 15.3402 11.5292 14.7223 10.999 13.9295C10.4688 13.1367 10.1859 12.2046 10.1859 11.2511C10.1859 9.97256 10.6942 8.74635 11.599 7.84226C12.5039 6.93817 13.7311 6.43026 15.0107 6.43026ZM6.44068 24.5675C6.45928 23.1608 7.0314 21.818 8.03327 20.8296C9.03514 19.8412 10.3862 19.2867 11.7941 19.2859H18.2273C19.6353 19.2867 20.9863 19.8412 21.9882 20.8296C22.9901 21.818 23.5622 23.1608 23.5808 24.5675C21.2293 26.6847 18.1761 27.8565 15.0107 27.8565C11.8453 27.8565 8.79217 26.6847 6.44068 24.5675Z" fill="#2D3748"/>
<path d="M21 1L19 4L24 11L29 4L27 1H21Z" fill="#F6AD55"/>
</svg>
